<?xml version="1.0" encoding="UTF-8"?>
<svg width="100px" height="83px" viewBox="0 0 100 83" version="1.1" xmlns="http://www.w3.org/2000/svg" xmlns:xlink="http://www.w3.org/1999/xlink">
    <!-- Generator: Sketch 56.3 (81716) - https://sketch.com -->
    <title>cupped</title>
    <desc>Created with Sketch.</desc>
    <defs>
        <polygon id="path-1" points="0.292691667 0.00112477917 92.5897719 0.00112477917 92.5897719 53.0807791 0.292691667 53.0807791"></polygon>
    </defs>
    <g id="Mobile" stroke="none" stroke-width="1" fill="none" fill-rule="evenodd">
        <g id="15-Results-Cal" transform="translate(-12.000000, -683.000000)">
            <g id="cupped" transform="translate(62.500000, 725.000000) rotate(-40.000000) translate(-62.500000, -725.000000) translate(11.000000, 697.000000)">
                <g id="Group-3" transform="translate(10.390351, 1.677742)">
                    <mask id="mask-2" fill="white">
                        <use xlink:href="#path-1"></use>
                    </mask>
                    <g id="Clip-2"></g>
                    <path d="M61.996468,27.6164 C58.2333539,28.3249806 54.275082,28.8560774 50.7866346,30.5568516 C47.9360645,31.9469161 45.4794241,33.952529 42.6527969,35.3376258 C42.4739022,35.4247871 42.2968145,35.210271 42.4382136,35.058529 C44.7344811,32.5994968 47.8199636,30.5116903 50.9284855,29.2250452 C54.2249373,27.8593677 58.4108934,26.7303355 61.996468,27.2496903 C62.1830425,27.2767871 62.1753627,27.5843355 61.996468,27.6164 M36.4696346,25.9779484 C34.8812662,25.3113677 32.8266873,24.2279484 32.0790338,22.5727871 C32.0361171,22.4770452 32.1463452,22.3790452 32.2290162,22.4576258 C35.6790645,25.7327226 41.5889154,26.2909161 46.0779987,26.1464 C50.9872136,25.9887871 56.0970075,24.9134968 60.7297487,23.3220129 C60.8124197,23.2940129 60.868889,23.4263355 60.7893803,23.4633677 C58.1402925,24.7220129 55.3674241,25.2133677 52.6293408,26.1563355 C50.1541785,27.0071742 47.368661,27.5025935 44.7408057,27.3946581 C41.8988189,27.2767871 39.1191741,27.0889161 36.4696346,25.9779484 M17.660389,18.3389161 C16.8092838,17.7500129 16.5029943,16.4710452 16.1863145,15.5240129 C15.8172311,14.4175613 15.8167794,13.3526581 16.0218759,12.2145935 C16.0489811,12.0660129 16.2929285,12.0669161 16.3200338,12.2145935 C16.5296478,13.3621419 16.5865689,14.4387871 17.0993101,15.5131742 C17.4846566,16.3202065 18.0976873,17.1611097 18.1320206,18.0684 C18.1406039,18.2951097 17.8550952,18.4734968 17.660389,18.3389161 M84.7305557,9.83730323 C77.5350118,8.00827097 71.3242925,3.49891613 64.2394285,1.25846452 C60.1709285,-0.0286322581 56.4132355,-0.354245161 52.2074022,0.405367742 C48.4664241,1.08098065 44.646389,1.31988387 40.8990864,1.98962581 C37.1400382,2.66162581 33.7663364,3.8267871 30.2602706,5.31485161 C26.9154811,6.73427097 23.8426478,6.72343226 20.2986346,7.09420645 C16.3778583,7.50517419 13.2413276,9.23846452 9.62187149,10.5860774 C6.59195482,11.7142065 3.01270482,11.0449161 0.292691667,13.0134968 C0.448998684,13.7094323 0.543867105,14.3958839 0.581362719,15.0421419 C1.75727939,16.2989806 3.76397237,16.5356258 4.6579943,18.2160774 C4.78990658,18.4635613 4.90691096,18.7038194 5.01668728,18.9409161 C5.74898114,19.2389806 6.42570921,19.7727871 7.23028377,19.7502065 C8.23814781,19.7226581 9.25007763,19.8414323 10.2597487,19.8531742 C12.1837706,19.8730452 13.9279943,19.9227226 15.8276215,20.1968516 C18.3434417,20.5604 20.1206434,19.0872387 22.4815118,18.6252387 C24.4642618,18.2359484 26.5057399,18.1975613 27.7833013,16.4484645 C27.4612004,15.9851097 27.2976654,15.4287226 27.4092487,14.8172387 C27.4440338,14.6293677 27.6934022,14.6356903 27.7833013,14.7680129 C28.1207618,15.2706581 28.5327618,16.0081419 29.1060382,16.2673677 C29.6851873,16.5284 30.2128364,16.5984 30.8362575,16.6783355 C31.5979154,16.7767871 32.4314022,16.788529 33.0521127,17.2758194 C33.2160996,17.404529 33.1316215,17.6470452 32.9911259,17.7459484 C32.1088496,18.3691742 30.0890557,17.9329161 29.1616039,17.5377548 C28.9072662,17.4289161 28.6633189,17.2880129 28.4410557,17.1204645 C28.0475776,18.6446581 25.9582136,19.0434323 24.506275,19.2565935 C22.7990952,19.5081419 21.5088846,19.6820129 19.9060601,20.4190452 C19.0739285,20.8020129 18.2535425,21.1312387 17.3626829,21.3100774 C17.4200557,21.9703355 17.4426434,22.6342065 17.4602618,23.2998839 C17.4796873,24.0287871 17.6093408,24.7924645 17.3550031,25.4893032 C17.2754943,25.7078839 17.0085075,25.6956903 16.9253846,25.4893032 C16.4383934,24.2880129 16.5454592,22.7480129 16.7017662,21.4035613 C15.5583759,21.4545935 14.4353145,20.8891742 13.2923759,20.9289161 C12.0645075,20.9713677 10.8334768,21.016529 9.60515658,20.9094968 C7.84512149,20.7564 6.58563026,20.622271 5.34240219,19.712271 C5.72729693,20.722529 5.94323553,21.7192387 6.05752939,22.9114968 C6.07288904,23.072271 5.83345921,23.1264645 5.76117851,22.9932387 C4.67290219,20.9871742 4.34763904,18.5882065 2.30841974,17.2121419 C1.80968289,16.8752387 1.11036711,16.5274968 0.586783772,16.0645935 C0.56600307,16.478271 0.517665351,16.8653032 0.434994298,17.2098839 C1.10765658,18.3429806 1.43879254,19.5867226 1.21291535,20.7252387 C2.47240658,21.9789161 3.38449868,23.676529 3.77662149,25.2951097 C3.84031886,25.5561419 3.67994605,25.7846581 3.47078377,25.8907871 C4.56267412,25.6970452 5.64598114,25.8090452 6.74013026,26.5009161 C7.81169167,27.1756258 8.63298114,28.098271 9.26905132,29.1631742 C11.2590294,28.8280774 14.1561303,29.4946581 15.9699241,30.6909806 C15.9943189,30.4195613 16.0449154,30.1558194 16.1542399,29.9024645 C16.2725996,29.6287871 16.7600425,29.694271 16.8047662,29.9864645 C16.9448101,30.9023355 17.2614899,32.1695613 16.8517487,33.0064 C16.7903101,33.1324 16.5865689,33.1581419 16.4948627,33.0520129 C16.2355557,32.7512387 16.1248759,32.4215613 16.0837662,32.0751742 C14.1927224,30.6227871 11.9203978,30.4340129 9.69460395,29.9494323 C10.0519417,30.6873677 10.3392575,31.4731742 10.5610689,32.2910452 C10.5818496,32.3095613 10.6008232,32.3321419 10.6107618,32.3633032 C11.0083057,33.5925935 11.4315996,34.7943355 12.1096829,35.8904 C13.4897925,35.6180774 15.0058803,35.8691742 16.3999943,36.2720129 C16.3064811,36.0936258 16.218389,35.9107226 16.1420425,35.7174323 C15.981218,35.3123355 16.5865689,34.9889806 16.8643978,35.2987871 C17.5447399,36.0588516 18.3804855,36.6193032 19.1606654,37.2655613 C20.0095118,37.9696258 21.0363496,37.9447871 21.6986215,38.8231742 C21.8874548,39.0729161 21.5775513,39.3953677 21.3137268,39.3235613 C19.9837618,38.9582065 18.9447268,38.3991097 18.0014636,37.6354323 C17.8632268,37.774529 17.6680689,37.8526581 17.4787838,37.7799484 C15.9120996,37.1711742 14.2469329,36.9932387 12.6282969,36.6215613 C13.4143496,37.5509806 14.4664855,38.1349161 15.4065864,38.8868516 C15.8660206,39.2540129 16.2811829,39.6929806 16.6529768,40.1739484 C17.3798496,40.1436903 18.1293101,40.3103355 18.9094899,40.1658194 C20.0438452,39.9558194 21.1239899,40.0465935 22.2673803,40.1554323 C22.3265601,40.1604 22.3879987,40.1667226 22.4485338,40.1730452 C23.6217399,39.5746581 25.6329504,38.2419484 25.9911917,38.0500129 C27.1951171,37.4010452 29.0617662,36.4409161 30.4617531,36.8952387 C30.5891478,36.9367871 30.6420031,37.1359484 30.5019592,37.2023355 C28.5815513,38.1204645 26.6512048,38.9302065 24.7854592,39.944529 C24.4836873,40.1093677 24.2216697,40.2593032 23.9786259,40.3889161 C25.1165952,40.6174323 26.2337838,41.0469161 26.8490732,41.9713677 C26.9728539,42.156529 26.770468,42.3832387 26.5725996,42.3308516 C24.4412224,41.776271 22.5158452,40.9940774 20.2507487,41.0274968 C19.4768934,41.0392387 18.5738364,41.2817548 17.8008846,41.1733677 C17.5185382,41.134529 17.3821083,41.1160129 17.2660075,41.0866581 C17.5329943,41.540529 17.7593232,42.0201419 17.943639,42.5096903 C18.8232048,43.5926581 18.3926829,45.5395613 17.9386697,46.6816903 C17.9120162,46.7476258 17.8578057,46.7819484 17.785525,46.7679484 C17.7828145,46.7715613 17.7796522,46.774271 17.7764899,46.7778839 C17.7498364,46.8244 17.6739417,46.8158194 17.660389,46.7629806 C17.6540645,46.7372387 17.6477399,46.7114968 17.6414154,46.6862065 C17.6319285,46.6464645 17.6472882,46.5985935 17.6852355,46.578271 C17.7344768,46.5529806 17.6929154,45.7978839 17.711889,45.7062065 C17.8085645,45.2369806 17.7909461,44.7957548 17.7299592,44.3238194 C17.7114373,44.1820129 17.678911,44.0487871 17.6414154,43.9173677 C17.0460031,42.7847226 16.4280031,41.7419484 15.6478232,40.6887871 C14.8577048,39.6211742 13.5010864,39.0819484 12.5795075,38.1132387 C12.0152662,37.5207226 11.5603496,36.8839484 11.2088846,36.2056258 C11.3042048,37.380271 11.3272443,38.5287226 11.3150469,39.5764645 C11.3136917,39.6911742 11.1564811,39.6834968 11.1424768,39.5764645 C10.7485469,36.5628516 10.2972443,33.2547871 8.66686272,30.5984 C7.94089342,29.4151742 6.92444605,27.9009161 5.61255132,27.2808516 C4.51298114,26.7601419 1.9542443,26.8725935 1.02453377,28.0047871 C1.01369167,28.3340129 1.01414342,28.6636903 1.02001623,28.9956258 C1.37373991,29.3596258 2.23071798,29.5727871 2.66801623,29.8794323 C3.02670921,30.130529 3.27201184,30.3847871 3.55842412,30.7244 C4.05309518,31.3101419 4.1795864,32.0693032 4.16513026,32.8049806 C4.13395921,34.4199484 4.38332763,36.2945935 2.54513904,36.7380774 C4.65257325,42.4229806 8.76624868,47.5916903 13.8173145,50.3307226 C18.0086917,52.6027871 22.5411434,52.2586581 27.1427136,52.7053032 C31.5680996,53.1347871 35.9406303,53.1718194 40.3795689,52.9378839 C45.0105031,52.6953677 49.7485031,52.7676258 54.3387794,52.0540774 C58.4827224,51.4096258 62.4310557,49.8768516 66.3351171,48.398271 C70.3616039,46.8713677 74.2900601,44.8752387 78.5013145,43.8970452 C82.0968276,43.0624645 86.1852048,42.8904 89.830411,43.5348516 C91.6554987,40.5916903 93.8781303,34.6787226 91.6654373,24.9193677 C90.0784241,17.9193677 86.9549943,12.7172387 84.8588539,9.82330323 C84.8209066,9.84091613 84.7779899,9.84859355 84.7305557,9.83730323" id="Fill-1" fill="#F5E0CE" mask="url(#mask-2)"></path>
                </g>
                <path d="M2.19240921,16.8628645 C1.75420746,16.8895097 1.30561535,16.796929 0.882773246,16.5530581 C0.903102193,17.3469935 0.978093421,18.1314452 1.08651447,18.9330581 C1.38783465,18.1915097 1.75511096,17.4942194 2.19240921,16.8628645" id="Fill-4" fill="#F5E0CE"></path>
                <path d="M6.54537895,9.72616129 C4.59154123,8.19925806 3.10436579,9.17474194 2.15703684,10.7644194 C2.8992693,11.1487419 3.63020789,11.907 4.09732193,12.4841613 C4.59470351,13.0974516 4.91183509,14.2165484 4.62135702,14.9833871 C4.58657193,15.076871 4.54546228,15.1658387 4.50209386,15.2539032 C6.34841404,14.8921613 8.49018158,16.0270645 9.95025175,17.6885484 C9.71940526,16.5197742 9.66609825,15.2882258 9.27713772,14.1560323 C8.72328684,12.545129 7.92729561,10.8050645 6.54537895,9.72616129" id="Fill-6" fill="#F5E0CE"></path>
                <path d="M1.02372061,14.0544194 C0.927045175,14.7286774 0.884128509,15.3812581 0.879610965,16.0211935 C1.55408026,16.4122903 2.3301943,16.345 2.95180833,16.0071935 C3.10811535,15.8739677 3.27029518,15.7583548 3.4374443,15.6599032 C4.09836096,15.048871 4.38206272,14.085129 3.73876447,13.175129 C3.31411535,12.5753871 2.49418114,11.9331935 1.77589167,11.4946774 C1.39054518,12.3391935 1.13665921,13.2668065 1.02372061,14.0544194" id="Fill-8" fill="#F7ECE4"></path>
                <path d="M6.26524605,20.5996903 C7.86490833,20.2420129 9.3448557,20.6755613 10.5921496,21.5507871 C9.92310132,19.5451742 9.14698728,17.6416258 6.94965395,16.7058839 C5.62556184,16.1413677 4.62402237,16.2700774 3.85242588,16.7912387 C3.99201798,17.0138839 4.17633377,17.2067226 4.28972412,17.4618839 C4.42841272,17.7730452 4.54722412,18.1411097 4.75728991,18.4134323 C5.20452675,18.9937548 5.54289079,19.6526581 6.04433816,20.1909806 C6.16992588,20.3260129 6.18212325,20.4944645 6.11119781,20.6444 C6.1617943,20.6281419 6.21239079,20.6114323 6.26524605,20.5996903" id="Fill-10" fill="#F5E0CE"></path>
                <path d="M3.66544474,25.4779226 C3.01175614,25.4612129 2.19814649,24.8939871 1.8643,24.4906968 C1.61086579,24.1858581 1.31270789,23.8530194 1.07192281,23.4939871 C0.843335088,25.3130839 0.962598246,27.1105032 1.58692281,28.9133419 C2.16065088,30.5676 3.10662456,32.0028258 3.90306754,33.5283742 C3.86150614,32.8496 3.86737895,32.1536645 3.9243,31.4197935 C4.07654123,29.4665677 3.65144035,27.4388258 3.66544474,25.4779226" id="Fill-12" fill="#F5E0CE"></path>
                <path d="M13.2956737,32.4267548 C12.7689281,31.8667548 11.9923623,31.6725613 11.426314,31.2290774 C11.522086,33.3484968 11.9489939,35.5058516 12.6505684,37.6063032 C14.5949193,37.3371419 14.207314,33.3954645 13.2956737,32.4267548" id="Fill-14" fill="#F7ECE4"></path>
                <path d="M7.34078289,28.0746968 C7.46637061,26.8399871 7.02591009,26.2998581 5.96157675,25.7213419 C5.5956557,25.5221806 5.1728136,25.3103742 4.81457237,25.0403097 C4.85251974,26.9289548 5.21798904,28.7801161 5.08201096,30.6827613 C6.52220395,30.8462452 7.19848026,29.4769548 7.34078289,28.0746968" id="Fill-16" fill="#F7ECE4"></path>
                <path d="M5.6238,20.8497484 C5.22083509,20.6546516 4.81244912,19.8245871 4.69815526,19.6172968 C4.3878,19.0527806 4.05079123,18.5474258 3.82581754,17.9400065 C3.72643158,17.6726516 3.53895351,17.4007806 3.44634386,17.1185226 C2.33186579,18.1816194 1.77440088,20.1316839 1.39447544,21.7285871 C1.3393614,21.962071 1.29328246,22.1923935 1.24810702,22.4231677 C1.29328246,22.5672323 1.34568596,22.7076839 1.4315193,22.8391032 C1.65965526,23.1900065 1.98265965,23.5133613 2.26997544,23.8186516 C2.55909825,24.1257484 3.1983307,24.6374258 3.70158509,24.652329 C3.72055877,24.4197484 3.74540526,24.1907806 3.78290088,23.9627161 C3.96812018,22.8291677 4.54546228,21.4531032 5.6238,20.8497484" id="Fill-18" fill="#F7ECE4"></path>
                <path d="M8.76796535,41.4052258 C9.79886886,42.8083871 10.6915355,44.3185806 11.7486408,45.7009677 C14.0336145,48.6874839 17.1516232,49.1521935 20.2633075,50.5743226 C14.3846276,45.5040645 10.1688557,37.5823226 10.8464873,29.7260645 C10.8013118,29.2089677 11.0592636,28.5410323 11.4184083,28.3816129 C12.1407636,28.0614194 12.8531803,27.7863871 13.5606276,27.6265161 C13.4255531,27.6107097 13.3004171,27.5330323 13.2290399,27.3681935 C12.4881627,25.6674194 11.7138557,23.9774839 10.2406846,22.7667097 C9.30419781,21.9962581 7.83238202,21.064129 6.54217149,21.6047097 C5.4308557,22.0712258 4.94296096,23.0688387 4.83318465,24.1495484 C5.63730746,25.0211613 6.85026798,25.4348387 7.66252237,26.3353548 C8.1752636,26.9034839 7.89517588,27.9607097 7.77997851,28.5997419 C7.47323728,30.3009677 6.57334254,31.5916774 5.05093026,31.1188387 C4.91811447,32.8349677 4.83544342,34.5208387 5.48868026,36.1665161 C6.25937325,38.1070968 7.54145219,39.7365161 8.76796535,41.4052258" id="Fill-20" fill="#F5E0CE"></path>
                <path d="M11.4264496,20.8859226 C11.4264496,20.8859226 16.0948794,28.7981806 17.0638925,26.5970194 C18.0333575,24.3963097 18.7114408,23.6213419 19.8742566,25.4621161 C21.0370724,27.3028903 23.3636075,31.6627613 25.398761,29.8206323 C27.4339145,27.9812129 27.7533048,22.987729 27.7533048,22.987729 C27.7533048,22.987729 16.8488575,21.8546323 15.9489627,20.873729 C15.0486162,19.893729 12.4126294,19.1119871 17.4519496,18.9439871 C22.4912697,18.7777935 26.5697083,15.4778581 25.7859145,12.8670839 C25.0021206,10.2572129 27.4795417,11.801729 28.5226425,14.8045032 C29.5657434,17.8086323 32.9575154,18.5379871 34.8959934,17.6885032 C36.8340197,16.8399226 37.1249496,12.5771484 37.2220768,11.0272129 C37.3183004,9.47637419 39.6448355,12.8670839 40.4200461,14.3208258 C41.1952566,15.7736645 50.2082083,25.003729 63.2914671,24.6523742 C76.3742741,24.2996645 81.025989,20.3715355 82.3826075,18.9439871 C83.7392259,17.5182452 84.3206338,19.8706968 84.7086908,24.6523742 C85.0962961,29.4349548 90.8136996,36.5767613 84.1272829,36.0086323 C77.4404145,35.4409548 62.9034101,34.6664387 54.4718662,38.7350194 C46.0407741,42.8040516 45.1083531,38.3385032 36.4464145,41.7386968 C36.4464145,41.7386968 35.0644978,42.6012774 32.1823048,42.2219226 C29.2996601,41.843471 27.4303004,41.7730194 25.7972083,40.5645032 C24.1636645,39.3568903 22.1036645,39.0254065 24.6230987,38.9278581 C27.1429846,38.8321161 31.2589189,37.4668903 28.5226425,37.0356 C25.7859145,36.6034065 26.1739715,36.3121161 24.6230987,35.1505677 C23.0726776,33.9881161 19.4012697,32.1956645 20.2645724,32.0172774 C21.1287785,31.8393419 22.6850724,31.1786323 21.8127346,30.8873419 C20.9408487,30.5974065 15.8391864,26.0004387 14.1667917,26.9732129 C12.4953004,27.9441806 11.4264496,20.8859226 11.4264496,20.8859226" id="Fill-22" fill="#DBC8B8"></path>
                <path d="M87.1487066,27.9688387 C87.1487066,42.1788387 71.7601452,53.6985806 52.7774259,53.6985806 C33.7947066,53.6985806 18.4056934,42.1788387 18.4056934,27.9688387 C18.4056934,13.7597419 33.7947066,2.24 52.7774259,2.24 C71.7601452,2.24 87.1487066,13.7597419 87.1487066,27.9688387" id="Fill-24" fill="#F4A238"></path>
                <path d="M11.7485053,45.7008323 C10.6914,44.3184452 9.79918509,42.8087032 8.76782982,41.4050903 C7.54131667,39.7363806 6.25968947,38.1074129 5.48899649,36.1668323 C4.83530789,34.5207032 4.91797895,32.8352839 5.05124649,31.1187032 C6.57320702,31.5915419 7.47310175,30.3008323 7.78029474,28.5996065 C7.89549211,27.9610258 8.17512807,26.9033484 7.66238684,26.3352194 C6.85013246,25.4347032 5.63762368,25.0210258 4.83304912,24.1494129 C4.94327719,23.0691548 5.43117193,22.0715419 6.54248772,21.6050258 C7.83224649,21.0639935 9.30406228,21.9965742 10.2405491,22.7665742 C11.7141719,23.9773484 12.4884789,25.6677355 13.2289044,27.3680581 C13.3007333,27.5328968 13.4254175,27.6105742 13.5609439,27.6268323 C12.8530447,27.7862516 12.1406281,28.0612839 11.4187246,28.3814774 C11.0595798,28.5408968 10.8011763,29.2088323 10.8463518,29.725929 C10.1687202,37.5821871 14.3844921,45.503929 20.2636237,50.5741871 C17.1514877,49.1525097 14.0339307,48.6873484 11.7485053,45.7008323 M4.81452719,25.0404452 C5.17276842,25.3105097 5.59561053,25.5218645 5.96153158,25.7214774 C7.02586491,26.2999935 7.46632544,26.839671 7.34073772,28.0748323 C7.19843509,29.4770903 6.52261053,30.845929 5.08196579,30.6828968 C5.21794386,28.7802516 4.85247456,26.9290903 4.81452719,25.0404452 M3.78272018,23.9624452 C3.74522456,24.1909613 3.72037807,24.419929 3.70185614,24.6525097 C3.19815,24.6371548 2.55891754,24.125929 2.27024649,23.8188323 C1.9829307,23.5135419 1.65947456,23.1897355 1.4313386,22.8392839 C1.34595702,22.7078645 1.29310175,22.5669613 1.24837807,22.4233484 C1.29310175,22.1921226 1.3391807,21.9622516 1.39429474,21.7287677 C1.77467193,20.1318645 2.33168509,18.1813484 3.44616316,17.1187032 C3.53877281,17.4009613 3.72625088,17.6723806 3.82563684,17.9397355 C4.05061053,18.5476065 4.3876193,19.0529613 4.69842632,19.6174774 C4.81226842,19.8247677 5.22110614,20.6548323 5.6236193,20.849929 C4.54573333,21.4532839 3.96793947,22.8288968 3.78272018,23.9624452 M3.92457105,31.419929 C3.86765,32.1538 3.86132544,32.8497355 3.9033386,33.5285097 C3.10644386,32.0029613 2.16047018,30.5672839 1.58719386,28.9134774 C0.962417544,27.1106387 0.843154386,25.3127677 1.07174211,23.4941226 C1.31252719,23.8531548 1.61113684,24.1855419 1.8641193,24.4908323 C2.19796579,24.8941226 3.01157544,25.4613484 3.66526404,25.4780581 C3.65125965,27.4385097 4.07681228,29.4667032 3.92457105,31.419929 M2.19254474,16.8630903 C1.75524649,17.4944452 1.38751842,18.1917355 1.08619825,18.9332839 C0.978228947,18.1312194 0.902785965,17.3472194 0.882457018,16.5532839 C1.30575088,16.7967032 1.75434298,16.8892839 2.19254474,16.8630903 M1.02385614,14.0545097 C1.13679474,13.2668968 1.3906807,12.3392839 1.77602719,11.4947677 C2.49431667,11.9332839 3.31425088,12.5750258 3.7389,13.1752194 C4.38174649,14.0852194 4.09804474,15.0489613 3.43757982,15.6595419 C3.26997895,15.7584452 3.10825088,15.8740581 2.95149211,16.0072839 C2.32987807,16.3450903 1.55421579,16.411929 0.879294737,16.0212839 C0.884264035,15.3808968 0.927180702,14.7287677 1.02385614,14.0545097 M6.54519825,9.72625161 C7.92711491,10.8047032 8.72355789,12.5452194 9.27695702,14.155671 C9.6663693,15.2883161 9.71967632,16.5198645 9.95052281,17.6886387 C8.49000088,16.0271548 6.34868509,14.8922516 4.50191316,15.2539935 C4.54573333,15.165929 4.58639123,15.0765097 4.62162807,14.9830258 C4.91165439,14.2166387 4.59452281,13.0975419 4.09714123,12.4842516 C3.63002719,11.9070903 2.8990886,11.1488323 2.15730789,10.7645097 C3.10418509,9.17483226 4.59136053,8.19934839 6.54519825,9.72625161 M10.592014,21.5508323 C9.34517193,20.6756065 7.86477281,20.2420581 6.26511053,20.5997355 C6.21225526,20.6114774 6.16211053,20.6281871 6.11106228,20.6444452 C6.18243947,20.4945097 6.16979035,20.3256065 6.04420263,20.1910258 C5.54320702,19.6527032 5.20484298,18.9938 4.75715439,18.4134774 C4.54754035,18.1411548 4.42827719,17.7730903 4.2895886,17.461929 C4.17619825,17.2067677 3.99188246,17.013929 3.85229035,16.7912839 C4.62388684,16.2701226 5.62542632,16.1414129 6.94951842,16.705929 C9.14685175,17.641671 9.92296579,19.5452194 10.592014,21.5508323 M13.295764,32.4265742 C14.2069526,33.3952839 14.5950096,37.3369613 12.6506588,37.6061226 C11.9486325,35.5061226 11.5221763,33.3483161 11.4264044,31.2288968 C11.9924526,31.6728323 12.7690184,31.8665742 13.295764,32.4265742 M100.346124,45.2320581 C96.6697465,44.5614129 92.5276105,44.7307677 88.8918912,45.5748323 C84.6801851,46.5530258 80.7517289,48.5491548 76.7252421,50.0760581 C72.8211807,51.5546387 68.8728474,53.0869613 64.7289044,53.7318645 C60.1386281,54.4454129 55.4010798,54.3731548 50.7701456,54.615671 C46.331207,54.8496065 41.9582246,54.8125742 37.5328386,54.3830903 C32.9317202,53.9364452 28.3988167,54.2805742 24.2074395,52.0085097 C19.1563737,49.2694774 15.04315,44.1007677 12.9357158,38.4158645 C14.7734526,37.9723806 14.524536,36.0977355 14.555707,34.4827677 C14.5697114,33.7470903 14.4436719,32.987929 13.9485491,32.4021871 C13.6621368,32.0625742 13.4168342,31.8083161 13.0581412,31.5572194 C12.6212947,31.2505742 11.7638649,31.0374129 11.410593,30.6734129 C11.4042684,30.3414774 11.4038167,30.0118 11.4151105,29.6825742 C12.3443693,28.549929 14.9031061,28.437929 16.0031281,28.9586387 C17.3145711,29.5787032 18.3310184,31.0929613 19.0574395,32.2757355 C20.6873693,34.9325742 21.1386719,38.2401871 21.5326018,41.2542516 C21.5466061,41.3612839 21.7038167,41.3689613 21.7051719,41.2542516 C21.7173693,40.2065097 21.6947816,39.0580581 21.5994614,37.8829613 C21.9509263,38.5612839 22.405843,39.1985097 22.9700842,39.7910258 C23.8916632,40.7597355 25.2482816,41.2989613 26.0384,42.3665742 C26.8181281,43.4197355 27.4365798,44.4625097 28.0319921,45.5951548 C28.0694877,45.7265742 28.1015623,45.8598 28.1200842,46.0016065 C28.1815228,46.4735419 28.1986895,46.9147677 28.102014,47.3839935 C28.0830404,47.475671 28.1250535,48.2307677 28.0758123,48.2560581 C28.0378649,48.2763806 28.0220535,48.3242516 28.0319921,48.3635419 C28.0383167,48.3892839 28.0441895,48.4150258 28.0509658,48.4403161 C28.0640667,48.4936065 28.1399614,48.5021871 28.1670667,48.455671 C28.1702289,48.4520581 28.1729395,48.4493484 28.17565,48.4457355 C28.2479307,48.4597355 28.302593,48.4254129 28.3287947,48.3594774 C28.7832596,47.2168968 29.2133298,45.2704452 28.3342158,44.1870258 C28.1499,43.6974774 27.9235711,43.2183161 27.6565842,42.7644452 C27.7726851,42.7938 27.9086632,42.8123161 28.1910096,42.8507032 C28.9639614,42.9595419 29.8670184,42.7170258 30.6408737,42.7052839 C32.9064219,42.6718645 34.8317991,43.4540581 36.9627246,44.0086387 C37.1610447,44.0610258 37.3629789,43.8343161 37.23965,43.6491548 C36.6239088,42.7247032 35.5071719,42.2952194 34.3687509,42.0667032 C34.6117947,41.9370903 34.8738123,41.7871548 35.1755842,41.6223161 C37.0413298,40.6079935 38.9721281,39.7982516 40.892536,38.879671 C41.0321281,38.8137355 40.9792728,38.6145742 40.8523298,38.5730258 C39.4518912,38.1187032 37.5852421,39.0788323 36.3813167,39.7273484 C36.0230754,39.9197355 34.0118649,41.2524452 32.8391105,41.8508323 C32.7785754,41.8445097 32.7166851,41.8381871 32.6575053,41.8332194 C31.5145667,41.7243806 30.4339702,41.6336065 29.3000667,41.8436065 C28.5194351,41.9881226 27.7704263,41.8214774 27.0431018,41.8517355 C26.6713079,41.3707677 26.2561456,40.9313484 25.7971632,40.5646387 C24.8570623,39.8127032 23.8044746,39.2287677 23.0184219,38.2993484 C24.6370579,38.6710258 26.3026763,38.8489613 27.8693605,39.4577355 C28.0586456,39.5304452 28.2533518,39.4523161 28.3920404,39.3127677 C29.3353035,40.0768968 30.3743386,40.6359935 31.7043035,41.0013484 C31.9681281,41.0731548 32.2775798,40.7507032 32.0887465,40.5009613 C31.4269263,39.6225742 30.3996368,39.6474129 29.5507904,38.9433484 C28.7710623,38.2966387 27.9348649,37.7366387 27.2545228,36.9765742 C26.9771456,36.6667677 26.371343,36.9901226 26.5326193,37.3952194 C26.6089658,37.5885097 26.6970579,37.7709613 26.7905711,37.9498 C25.396457,37.5469613 23.8799175,37.2958645 22.5002596,37.5681871 C21.8221763,36.471671 21.3984307,35.2703806 21.0008868,34.0410903 C20.9914,34.009929 20.9724263,33.9873484 20.9511939,33.9683806 C20.7298342,33.1509613 20.4420667,32.3651548 20.0847289,31.6272194 C22.3109746,32.1118 24.5828474,32.3005742 26.474343,33.7529613 C26.5154526,34.0993484 26.6261325,34.4290258 26.8854395,34.7298 C26.9771456,34.8354774 27.1804351,34.8101871 27.2423254,34.6837355 C27.6516149,33.8473484 27.3353868,32.5801226 27.1948912,31.6642516 C27.1506193,31.3716065 26.6631763,31.3065742 26.5448167,31.5798 C26.4354921,31.8336065 26.3844439,32.0973484 26.3605009,32.3687677 C24.5462553,31.1724452 21.6496061,30.5058645 19.6596281,30.8409613 C19.0235579,29.7760581 18.2018167,28.8534129 17.1302553,28.1787032 C16.0361061,27.4868323 14.9532509,27.3748323 13.8613605,27.5685742 C14.0705228,27.4624452 14.2304439,27.233929 14.1671982,26.9728968 C13.7746237,25.3543161 12.8629833,23.6562516 11.6034921,22.4030258 C11.8293693,21.2645097 11.4977816,20.0207677 10.8251193,18.887671 C10.9082421,18.5430903 10.9561281,18.1560581 10.9773605,17.7423806 C11.5004921,18.2052839 12.2002596,18.5530258 12.6989965,18.889929 C14.737764,20.2659935 15.0634789,22.6649613 16.1513035,24.6710258 C16.2235842,24.8042516 16.4634658,24.7500581 16.4476544,24.5892839 C16.3333605,23.3970258 16.1178737,22.4003161 15.7325272,21.3900581 C16.9757553,22.3000581 18.2352465,22.4337355 19.9957333,22.5872839 C21.2240535,22.6943161 22.4546325,22.6491548 23.6829526,22.6067032 C24.8254395,22.5669613 25.9489526,23.1323806 27.092343,23.0813484 C26.9355842,24.4258 26.8289702,25.9658 27.3159614,27.1670903 C27.3990842,27.3734774 27.6656193,27.385671 27.7451281,27.1670903 C27.9999175,26.4702516 27.870264,25.7065742 27.8508386,24.977671 C27.8327684,24.3119935 27.8106325,23.6481226 27.7532596,22.9878645 C28.6436675,22.8090258 29.4645053,22.4798 30.2966368,22.0968323 C31.8990096,21.3598 33.1896719,21.185929 34.8964,20.9343806 C36.3483386,20.7207677 38.4377026,20.3224452 38.8311807,18.7982516 C39.0534439,18.9658 39.2973912,19.1067032 39.5521807,19.2155419 C40.4796325,19.6107032 42.4989746,20.0469613 43.3812509,19.4232839 C43.5221982,19.3248323 43.6066763,19.0823161 43.4422377,18.9531548 C42.8215272,18.4663161 41.9880404,18.4545742 41.2268342,18.3561226 C40.6029614,18.2757355 40.0753123,18.2061871 39.4966149,17.9451548 C38.9228868,17.685929 38.5108868,16.9484452 38.1734263,16.4458 C38.0839789,16.3134774 37.8341588,16.3071548 37.7998254,16.4950258 C37.6882421,17.1065097 37.8513254,17.6628968 38.1734263,18.1258 C36.8963167,19.8748968 34.8543868,19.9137355 32.8720886,20.3030258 C30.5107684,20.7650258 28.7340184,22.2381871 26.2177465,21.8746387 C24.3181193,21.6005097 22.5743474,21.5508323 20.6498737,21.5305097 C19.6406544,21.5192194 18.6282728,21.3999935 17.6204088,21.4279935 C16.816286,21.4505742 16.1395579,20.9167677 15.407264,20.6187032 C15.297036,20.3816065 15.1804833,20.1413484 15.0485711,19.8934129 C14.1540974,18.2134129 12.1478561,17.9767677 10.9714877,16.719929 C10.9339921,16.0732194 10.8391237,15.3872194 10.6832684,14.6912839 C13.4028298,12.7227032 16.9825316,13.3919935 20.0124482,12.2638645 C23.6319044,10.9162516 26.7679833,9.18296129 30.6892114,8.77199355 C34.2327728,8.40121935 37.3056061,8.41205806 40.6508474,6.99263871 C44.1564614,5.50457419 47.5301632,4.3394129 51.2892114,3.6674129 C55.036514,2.99767097 58.8565491,2.75876774 62.5979789,2.08315484 C66.8033605,1.32354194 70.5610535,1.64915484 74.6295535,2.93625161 C81.7148693,5.17670323 87.9255886,9.68605806 95.1211325,11.5150903 C95.3397816,11.5706387 95.4911193,11.2477355 95.278343,11.1411548 C93.6999132,10.3517355 91.9981544,9.85496129 90.391264,9.11476774 C88.4378781,8.21425161 86.5477377,7.1741871 84.6377202,6.18921935 C81.2933825,4.46270323 77.8040316,2.94934839 74.2469175,1.7178 C66.9140404,-0.818006452 59.046286,1.03450968 51.6040842,2.26560645 C47.9525535,2.86986452 44.5788518,3.88328387 41.2191544,5.42328387 C39.4478254,6.23573548 37.6846281,6.96599355 35.7624132,7.32412258 C33.5497202,7.73689677 31.2864307,7.77347742 29.0597333,8.07831613 C25.4005228,8.5814129 22.1817728,10.5942516 18.6436325,11.5051548 C15.8820579,12.2159935 12.7324263,12.0628968 10.5369,14.0933484 C9.69347456,10.9708968 7.7251807,7.89812258 4.95863684,7.88863871 C-0.253253509,7.87012258 -0.342249123,15.8686387 0.790750877,19.7403161 C0.124413158,21.7468323 -0.103271053,23.9732839 0.0421938596,25.9490903 C0.282527193,29.2088323 2.13200965,31.9311548 4.00046579,34.4958645 C4.15496579,35.5594129 4.45854474,36.5949613 4.95818509,37.6707032 C6.0405886,39.9992194 7.9777114,41.961929 9.42513246,44.0650903 C10.6963693,45.9135419 11.9829658,47.7023806 13.9128605,48.903671 C15.9832509,50.1912194 18.6504088,50.7408323 20.9927553,51.297671 C21.0406412,51.3089613 21.0840096,51.2985742 21.1192465,51.2764452 C24.1473561,53.6433484 27.3231895,54.5398 31.1649088,54.6332839 C33.7624965,54.6960581 36.2891588,54.7303806 38.8691281,55.1142516 C41.0696237,55.4412194 43.2493386,55.8065742 45.4787465,55.8548968 C50.0848342,55.9556065 54.7455842,55.5658645 59.3444439,55.3161226 C63.8823167,55.0690903 67.9670798,53.8687032 72.2013737,52.2943806 C76.7415053,50.6067032 81.2608561,48.8223806 85.8985667,47.4201226 C90.6072026,45.9952839 95.3836018,46.3678645 100.214663,46.2052839 C100.751799,46.187671 100.915786,45.3372839 100.346124,45.2320581" id="Fill-26" fill="#5E5F62"></path>
                <path d="M71.1202351,24.9998452 C66.4874939,26.5908774 61.3777,27.6661677 56.4680333,27.8242323 C51.9794018,27.9687484 46.0695509,27.4105548 42.6195026,24.1354581 C42.5368316,24.0568774 42.4261518,24.1548774 42.4695202,24.2506194 C43.2167219,25.9057806 45.2713009,26.9887484 46.8601211,27.6557806 C49.5096605,28.7667484 52.2888535,28.9546194 55.1308404,29.0724903 C57.7591474,29.1804258 60.5446649,28.6850065 63.0193754,27.8337161 C65.7579105,26.8907484 68.5307789,26.3998452 71.1798667,25.1407484 C71.2593754,25.1037161 71.2029061,24.9718452 71.1202351,24.9998452" id="Fill-29" fill="#5E5F62"></path>
                <path d="M27.4897513,17.1910065 C26.9770101,16.1166194 26.920089,15.0395226 26.7100232,13.8919742 C26.6833697,13.7447484 26.4394224,13.7438452 26.4123171,13.8919742 C26.2072206,15.0304903 26.2076724,16.0953935 26.5767557,17.2013935 C26.8934355,18.1488774 27.1992732,19.4278452 28.0508303,20.0167484 C28.2455364,20.151329 28.5310452,19.9729419 28.5224618,19.7462323 C28.4881285,18.8384903 27.8750978,17.9980387 27.4897513,17.1910065" id="Fill-31" fill="#5E5F62"></path>
                <path d="M72.3868189,28.9276581 C68.8012443,28.4083032 64.6152882,29.5373355 61.3188364,30.9025613 C58.2103145,32.1896581 55.124832,34.2774645 52.8285645,36.7364968 C52.6871654,36.8882387 52.8642531,37.1027548 53.0431478,37.0151419 C55.869775,35.6304968 58.3264154,33.6244323 61.1769855,32.2343677 C64.6654329,30.5340452 68.6237048,30.0029484 72.3868189,29.2943677 C72.5657136,29.2618516 72.5733934,28.9547548 72.3868189,28.9276581" id="Fill-33" fill="#5E5F62"></path>
            </g>
        </g>
    </g>
</svg>