<?xml version="1.0" encoding="UTF-8"?>
<svg width="62px" height="76px" viewBox="0 0 62 76" version="1.1" xmlns="http://www.w3.org/2000/svg" xmlns:xlink="http://www.w3.org/1999/xlink">
    <!-- Generator: Sketch 56.3 (81716) - https://sketch.com -->
    <title>fist</title>
    <desc>Created with Sketch.</desc>
    <g id="Mobile" stroke="none" stroke-width="1" fill="none" fill-rule="evenodd">
        <g id="15-Results-Cal" transform="translate(-32.000000, -512.000000)">
            <g id="fist" transform="translate(32.000000, 512.000000)">
                <path d="M24.1268957,31.7499669 C23.2903449,31.8542982 22.5777942,32.3552686 22.5440986,33.2731148 C22.5324174,33.5937538 22.5647652,33.8833633 22.6128377,34.1693751 C22.8487072,34.5884994 23.1304029,34.979742 23.4803884,35.3246651 C24.659287,36.4867006 25.909171,36.2492568 27.281258,36.6396 C26.7875043,35.1524284 26.1985043,33.5366414 25.9478087,32.0382272 C25.3758812,31.7027479 24.7765478,31.6672213 24.1268957,31.7499669" id="Fill-1" fill="#F7ECE4"></path>
                <path d="M42.2602783,9.0408071 C40.3158145,7.23074793 38.4203217,4.56849941 35.9259449,3.4932568 C32.5779449,2.05015621 30.3769449,4.82617988 28.5196406,7.14710296 C27.5954812,8.30104379 26.2642783,10.3215645 24.7111333,10.8468189 C25.2956406,11.371174 25.8176986,11.9611858 26.2112638,12.5970675 C26.4511768,12.619103 26.5724812,12.8862272 26.4763362,13.0760024 C26.6385246,13.4015882 26.7670174,13.7352686 26.8501333,14.0770438 C27.2935681,15.9001444 25.6932493,17.7448308 24.3714812,18.7350793 C22.9405391,19.8062746 21.2822638,20.4556473 19.5435681,20.6094462 C19.5224522,20.6161917 19.5062783,20.6197893 19.4838145,20.6152923 C19.4653942,20.6170911 19.4469739,20.6170911 19.4285536,20.6179905 C19.5534522,21.0978249 19.510771,21.5754107 19.2951188,22.0507479 C19.2955681,22.5971385 19.3939594,23.1228426 19.590742,23.6278604 C19.8661478,24.2938722 20.1033652,24.9571858 20.2925101,25.6524284 C20.7202203,27.2241444 21.2332928,28.7594343 21.4866841,30.371174 C21.6160754,31.195032 21.7791623,32.0557657 22.0496261,32.8742272 C22.060858,32.8202627 22.0671478,32.7707953 22.0824232,32.7168308 C22.2895391,32.0089964 22.724887,31.515671 23.3961043,31.211671 C24.0201478,30.927458 24.9699159,30.8964284 25.7637855,31.1523101 C25.5144377,29.5963337 25.7619884,27.9256828 26.4430899,26.6444757 C27.4521623,24.744026 28.5569304,23.0481917 29.4438,21.0775882 C29.8742058,20.1219669 30.2331768,18.8128781 30.8325101,17.9233633 C31.419713,17.0504876 32.0814957,16.2657538 32.4970754,15.2934935 C32.5375101,15.1977065 32.6489304,15.212097 32.7095826,15.2723574 C34.274858,12.6843101 36.3806116,9.85746982 39.4392783,10.9844284 C40.8868435,11.5177775 42.3290174,12.0583219 43.7568145,12.6438367 C44.7582493,13.0539669 45.9061478,13.2765704 46.8455826,13.8202627 C47.2903652,14.0779432 47.7248145,14.3630556 48.1516261,14.6621089 C47.2404957,12.0254935 44.1562203,10.8063456 42.2602783,9.0408071" id="Fill-3" fill="#F5E0CE"></path>
                <path d="M17.0565145,20.488026 C16.0020652,20.291955 15.0433116,19.9708663 14.1348768,19.5620852 C14.8999928,21.6824402 14.7171377,24.4930911 15.2778333,26.5581325 C15.5429058,27.5362391 15.7796739,28.6222746 16.148529,29.6287124 C16.1503261,29.6057775 16.1480797,29.5805941 16.1503261,29.559458 C16.2532101,28.747742 16.6553116,28.1541325 17.3948188,27.7966178 C18.137471,27.4364047 19.2152826,27.3743456 20.0289203,27.7210675 C19.7890072,26.6300852 19.5059638,25.5489964 19.1407029,24.4912923 C18.6667174,23.1178959 18.5031812,21.9005467 19.1389058,20.6346296 C18.452413,20.6638604 17.755587,20.6179905 17.0565145,20.488026" id="Fill-5" fill="#F5E0CE"></path>
                <path d="M53.153229,69.0771645 C51.846287,65.5361941 53.1190841,61.5401231 54.7400696,58.2887621 C55.5644899,56.0829633 56.4365333,53.8933538 57.0295768,51.6088568 C57.5323159,49.6746793 57.8445623,47.7409515 58.1316493,45.7892355 C58.1303014,44.8799337 58.0687507,43.9526438 57.994171,43.1454249 C57.8638812,41.743697 57.4554899,40.3505136 57.0354174,39.0162414 C56.899287,38.5831763 56.7712435,38.2971645 56.7977507,37.8717444 C56.806287,37.7377325 56.997229,37.7377325 57.0057652,37.8717444 C57.0363159,38.3565254 57.7313449,39.1160757 57.9213884,39.5743243 C58.2543014,40.3752473 58.5400406,41.2103479 58.7166058,42.0652355 C59.2350696,39.5046201 60.0886928,37.0321467 60.5056203,34.4535432 C60.9575913,31.6613302 61.1328087,28.0443598 58.3899826,26.2945609 C55.7365623,24.6023243 52.7924609,24.6090698 49.8613884,23.8328805 C47.4730406,23.1992473 44.0643884,21.5744663 41.613142,22.4576852 C38.6690406,23.5180876 37.2313594,26.5891172 36.2182435,29.3345609 C35.6117217,30.9786793 35.2154609,33.1035314 33.8599971,34.3195314 C33.8249536,34.4499456 33.7944029,34.5799101 33.7768812,34.7071763 C33.5414609,36.4178509 34.2616493,37.762916 35.1202145,39.162845 C35.3291275,39.5037207 35.5038957,39.871129 35.6773159,40.2403361 C35.9774319,39.6112 37.0494029,39.2033183 37.6900696,39.3054012 C38.4866348,39.4326675 38.9049101,39.9862533 39.2113159,40.6900402 C39.4602145,41.2620639 39.7194464,42.0072237 39.6893449,42.6651408 C40.0514609,42.5207858 40.4023449,42.315271 40.7258232,42.0692828 C42.2129246,40.9400757 41.4024319,39.1462059 42.4748522,37.8375669 C43.4017072,36.7065609 44.5199536,35.5458746 44.5585913,33.9809041 C44.5774609,33.2159574 44.5010841,32.4613538 44.4813159,31.6959574 C44.4750261,31.4477207 44.8232145,31.4216379 44.8982435,31.6397444 C45.1790406,32.4613538 45.3434754,33.4417089 45.2154319,34.3465136 C45.2239681,34.3523598 45.2338522,34.3564071 45.2419391,34.3640521 C47.5979391,36.5203834 51.3408522,33.6072 53.6483304,32.7064426 C53.7947942,32.6502296 53.9048667,32.8638391 53.7979391,32.9636734 C53.070113,33.6472237 51.9940986,34.4859219 50.8619246,35.1105609 C51.6993739,35.1510343 52.5085188,35.3772355 52.9380261,35.9843361 C53.0283304,36.1125018 52.8800696,36.2734959 52.7439391,36.2366201 C52.4685333,36.1619692 52.1634754,35.8912473 51.9055913,35.8543716 C51.5367362,35.7995077 51.1768667,35.7181112 50.8026203,35.703271 C50.4324174,35.6893302 50.0563739,35.686632 49.6834754,35.6645964 C49.1569246,35.8647148 48.6398087,35.9933302 48.1613304,36.0108686 C47.3436493,36.0387503 45.6076493,35.8925964 45.0366203,35.058845 C45.0182,35.1105609 45.0056203,35.1631763 44.9845043,35.2139929 C44.4094319,36.6116734 42.4312725,38.071413 42.4173449,39.5558864 C42.3989246,41.5291882 41.9159536,43.1796024 39.6718232,43.695413 C38.0180406,44.075413 37.0538957,43.6405491 36.3085478,42.8045491 C34.5339101,44.6964544 31.1926493,43.931058 29.665113,42.0625373 C30.536258,45.2401467 30.4814464,48.6587976 28.6425623,51.5351053 C28.4556638,51.8278627 27.9713449,51.6439337 28.0724319,51.2949633 C28.818229,48.7307503 29.8178667,46.3405728 29.3115333,43.5879337 C29.1057652,42.4663716 28.735113,41.3290698 28.5387797,40.1926675 C28.115113,39.2653775 27.8064609,38.2890698 27.4960116,37.3028686 C27.4892725,37.2817325 27.4820841,37.259697 27.4753449,37.2385609 C24.7415043,38.139768 22.4407652,36.2492118 21.3719391,33.8504899 C18.5774464,35.7392473 15.9208812,31.8034367 15.1346493,29.4415905 C14.8138667,28.4774249 14.5389101,27.5015669 14.3115768,26.5144663 C14.0352725,26.5801231 13.7019101,26.8288095 13.4929971,26.9263953 C13.2768957,27.0280284 12.7889826,27.1049278 12.6627362,27.326632 C12.5863594,27.4606438 12.4363014,27.4759337 12.3073594,27.4197207 C12.2732145,27.4057799 12.2417652,27.3859929 12.2094174,27.3671053 C12.0903594,27.2987503 12.0863159,27.1319101 12.1874029,27.0464663 C12.2480551,26.6174485 12.6986783,26.3921467 13.0554029,26.1776379 C13.4184174,25.9608805 13.7468377,25.7315314 14.1201855,25.6245018 C14.1188377,25.6164071 14.1165913,25.6096615 14.1152435,25.6015669 C14.1129971,25.6015669 14.1116493,25.6024663 14.1089536,25.6033657 C13.6911275,25.6141586 13.2144464,25.5503006 12.8092,25.6798154 C12.5009971,25.7774012 12.1986348,25.9001704 11.8904319,25.995058 C11.5089971,26.1115314 11.0323159,26.4254249 10.6392,26.4263243 C10.5120551,26.4263243 10.4558957,26.242845 10.5731565,26.1812355 C10.5920261,26.1717917 10.6180841,26.0652118 10.6418957,26.0409278 C10.7672435,25.9150107 10.944258,25.8264189 11.0821855,25.7085964 C11.339171,25.4918391 11.623113,25.3254485 11.9178377,25.1644544 C12.556258,24.8118864 13.2270261,24.6760757 13.9458667,24.6724781 C13.8353449,24.0015195 13.7459391,23.3278627 13.6843884,22.6488095 C13.579258,21.4795787 13.4157217,20.3031527 13.2706058,19.1388686 C11.9969101,18.4665609 10.8036348,17.6319101 9.57037391,16.7181112 C9.48546087,16.6551527 9.5559971,16.534632 9.65214203,16.5778036 C13.4251565,18.247555 18.1798377,21.2025609 22.3589971,18.6819692 C24.0365913,17.6710343 26.4613304,15.759342 25.511113,13.5985136 C24.1098232,14.4767858 23.1596058,16.2463716 21.3768812,16.0242178 C20.1584464,15.871768 18.4799536,14.5505373 17.5998232,13.7163361 C14.9257362,11.1831527 18.2759826,9.40097515 20.7878812,9.16308166 C20.4486783,8.83524734 20.1292435,8.49841893 19.8408087,8.16069112 C19.1417362,7.34222959 18.7126783,6.29441893 17.9439681,5.53711716 C16.7026203,4.31617041 15.2123739,4.31976805 13.5837507,4.51673846 C11.9735478,4.71146036 10.3557072,4.93721183 8.90409855,5.71609941 C7.30602609,6.5727858 7.09846087,8.05276213 6.65996812,9.63617041 C6.38411304,10.6313657 6.10062029,11.6319574 5.79421449,12.6271527 C5.5498087,13.8899219 5.26721449,15.1441467 4.88263478,16.3677917 C4.08022899,18.9230107 3.05318551,21.4166201 2.35546087,24.0033183 C1.45376522,27.3441704 0.60193913,30.4214959 2.36848986,33.6418272 C3.48898261,35.6830343 4.53893913,37.6621822 5.0556058,39.9570225 C5.69851884,42.8144426 6.26011304,45.6318391 7.1654029,48.4258509 C8.07473623,51.2338036 9.05056232,54.5652118 11.1140841,56.7611172 C12.1105768,57.8224189 13.173113,58.6831527 14.3569536,59.5272473 C15.0726493,60.0363124 15.8768522,60.5880994 16.2461565,61.4227503 C17.0647362,63.2741822 17.4636928,65.1755314 17.7134899,67.1555787 C21.1010261,70.538703 27.7947797,76.0862533 35.0555188,75.8173302 C43.4641565,75.5043361 49.3797652,72.2556734 53.1765913,69.1203361 C53.1689536,69.1050462 53.1595188,69.0938036 53.153229,69.0771645" id="Fill-7" fill="#F5E0CE"></path>
                <path d="M35.4921696,29.1343077 C35.9207783,27.890426 36.3731986,26.6056213 37.067329,25.4795621 C38.3410246,23.414071 39.9431406,21.7614083 42.4146043,21.3242959 C45.2239232,20.8273728 48.0404304,22.7525562 50.7320391,23.2310414 C52.8732855,23.6114911 55.1717783,23.7877751 57.2164304,24.5792544 C56.7541261,23.5561775 56.4513145,22.3266864 56.0573,21.6139053 C55.2036768,20.065574 53.9843435,19.3285089 52.2910246,18.9161302 C51.8597203,18.8113491 51.5348942,18.6121302 51.2680246,18.3459053 C50.0868797,17.5755621 49.0539957,16.3811479 47.9339522,15.625645 C45.8830101,14.2405562 43.3154014,13.5938817 41.0016333,12.7237041 C39.4287203,12.1314438 37.8257058,11.3287219 36.2491986,12.4804142 C35.3717638,13.1198935 34.5859812,13.7076568 33.8671406,14.5575976 C33.3711406,15.1444615 32.8207783,15.7169349 32.3665609,16.3492189 C32.1639377,16.7638462 31.9285174,17.1600355 31.6769232,17.5841065 C31.6463725,17.6565089 31.621213,17.7055266 31.5834739,17.7486982 C31.0411986,18.7007219 30.8143145,19.6842249 30.4301841,20.6965089 C29.9148652,22.0559645 29.5514014,23.4558935 28.7247348,24.6759408 C27.715213,26.1653609 26.4585899,28.0212899 26.6418942,29.9131953 C26.8364304,31.9247219 27.948387,33.0471834 28.7278797,34.7812426 C28.8339087,35.0164379 28.6155609,35.2687219 28.369358,35.1396568 C28.0081406,34.9507811 27.6851116,34.7169349 27.3993725,34.4498107 C27.5170826,34.7223314 27.6271551,34.9988994 27.7192565,35.2817633 C28.1267493,36.5278935 28.4650536,37.8001065 28.971387,39.0129586 C28.989358,39.0556805 29.0095754,39.0952544 29.0279957,39.1375266 C29.3132855,38.2794911 30.4971261,37.7290533 31.5798797,37.9156805 C32.7340681,38.1135503 33.5616333,38.6563432 34.0517928,39.734284 C34.427387,40.5639882 34.6987493,41.6837515 34.6093435,42.6357751 C34.9997638,42.5332426 35.4027638,42.3794438 35.8187928,42.1626864 C35.4265754,41.5740237 35.0720971,40.8801302 34.662358,40.1601538 C34.0297783,39.0480355 33.1694159,37.7807692 33.0809087,36.4532426 C32.9870101,35.0438698 33.7386478,34.0563195 33.869387,32.7260947 C33.8896043,32.5228284 34.1654594,32.5228284 34.1856768,32.7260947 C34.2180246,33.0534793 34.1380536,33.3871598 34.0387638,33.7190414 C34.8299377,32.3991598 35.021329,30.5000592 35.4921696,29.1343077" id="Fill-9" fill="#F5E0CE"></path>
                <path d="M32.4788797,38.907458 C31.2959377,38.2936118 29.2697058,38.3893988 29.3680971,39.839245 C30.3960391,41.7576828 31.9559232,42.9476 33.8882565,42.7614225 C33.7485319,41.5179905 33.7395464,39.5626769 32.4788797,38.907458" id="Fill-11" fill="#F7ECE4"></path>
                <path d="M39.0883493,42.8406154 C38.844842,42.0626272 38.782842,41.1848047 38.3106536,40.4981065 C37.9889725,40.0308639 37.5455377,39.8982012 37.0037116,39.9921893 C36.3756246,40.1001183 35.9101754,40.2952899 36.0323783,40.9698462 C36.1765957,41.248213 36.3306971,41.5189349 36.5135522,41.7662722 C37.2445232,42.7578698 38.1767696,43.0164497 39.0883493,42.8406154" id="Fill-13" fill="#F7ECE4"></path>
                <path d="M23.0190725,3.03213018 C22.1942029,4.09523077 21.2174783,5.78836686 19.9325507,6.4112071 C20.5521014,7.3016213 21.1694058,8.16685207 22.0823333,8.8652426 C22.5482319,9.2227574 23.0523188,9.56633136 23.5375362,9.93418935 C23.7891304,10.1028284 24.0371304,10.2854083 24.277942,10.4787811 C25.9047681,9.79613018 27.2458551,7.5835858 28.2041594,6.24976331 C28.9063768,5.27525444 29.6463333,4.37494675 30.5556667,3.59605917 C29.605,2.79918343 28.4593478,2.10843787 27.2907826,1.70685207 C25.4676232,1.08131361 24.1705652,1.54495858 23.0190725,3.03213018" id="Fill-15" fill="#F5E0CE"></path>
                <path d="M21.0800449,33.0894107 C20.9650304,32.7354935 20.8751754,32.3743811 20.8167696,32.0150675 C20.6437986,30.9627598 20.4685812,29.9064047 20.2646101,28.8549964 C20.172958,28.7425704 20.0781609,28.6319432 19.9635957,28.5370556 C19.3732478,28.0441799 18.5506246,27.9259077 17.8111174,28.1489609 C16.310987,28.601813 16.4830594,30.077742 16.9687261,31.2811503 C18.0721464,32.8928899 19.3211319,33.4716592 21.0800449,33.0894107" id="Fill-17" fill="#F7ECE4"></path>
                <path d="M23.0798594,10.9739953 C22.4014536,10.547226 21.7495551,10.0422083 21.1520188,9.50211361 C20.548642,9.52190059 19.9245986,9.5448355 19.3499754,9.73730888 C18.378642,10.062445 15.7297145,11.3517467 17.5569174,13.0889538 C18.2923812,13.7882438 19.267758,14.4047882 20.1609174,14.9017112 C22.3996565,16.1518888 23.5030768,13.9681254 25.1537145,12.9855219 C25.1510188,12.9819243 25.1492217,12.979226 25.1469754,12.9756284 C24.5835841,12.2151787 23.7964536,11.6179716 23.0798594,10.9739953" id="Fill-19" fill="#F7ECE4"></path>
                <path d="M40.6158406,65.878284 C39.6067681,65.0202485 38.4961594,64.3272544 37.4515942,63.5123905 C36.0264928,62.4034201 35.1158116,60.509716 34.2621884,58.9586864 C32.6474928,56.0252663 32.6582754,52.6839645 32.7966522,49.4483432 C32.7993478,49.3844852 32.7072464,49.3763905 32.6901739,49.4344024 C30.9240725,55.4114201 33.6345507,64.7023077 40.3916522,66.2636805 C40.6005652,66.3122485 40.8022899,66.0374793 40.6158406,65.878284" id="Fill-21" fill="#5E5F62"></path>
                <path d="M8.58327101,9.50193373 C8.58327101,9.50193373 13.0971406,15.6188095 16.6230536,16.905413 C20.1489667,18.1911172 22.1963145,17.0785491 23.4902275,16.905413 C24.7836913,16.7313775 22.368387,19.5613657 19.9324159,19.5622651 C17.4968942,19.5640639 13.1955319,18.5441349 13.2705609,19.1390935 C13.3460391,19.7345018 13.946271,24.6722533 13.946271,24.6722533 C13.946271,24.6722533 16.3314739,32.5555669 18.8514594,33.2035905 C21.3718942,33.8507148 22.0498507,32.8744071 22.0498507,32.8744071 C22.0498507,32.8744071 22.8504594,37.2482296 27.4753,37.2387858 C27.4753,37.2387858 29.8744304,44.3531053 35.8187928,42.1625964 C35.8187928,42.1625964 41.3323,43.8552828 41.9204014,41.4273302 C42.5080536,39.0007266 42.7659377,38.3603479 41.3525174,36.9586201 C39.9390971,35.5555432 41.3314014,33.3695314 41.9204014,31.1835195 C42.5089522,28.9966083 42.4024739,28.165555 42.391242,26.0083243 C42.3804594,23.8510935 42.8944304,22.8963716 44.9507638,24.5949041 C47.0066478,26.2956852 47.1351406,26.8276852 50.0909232,28.040987 C53.0467058,29.2538391 55.9162275,29.3136497 56.0020391,27.2661467 C56.0883,25.2177444 56.7734449,27.4302888 57.801387,29.6288923 C58.829329,31.8265964 60.9687783,32.9787385 60.1847928,36.0951882 C59.400358,39.2102888 58.6878072,45.6127266 57.2168797,49.3956379 C55.7450536,53.1785491 52.3130391,60.3931527 52.6154014,65.6614367 C52.918213,70.9297207 52.7897203,68.7423598 50.0909232,70.1575787 C47.3921261,71.5723479 40.1655319,74.273271 39.0881696,71.8300284 C38.0112565,69.3863361 33.3850681,68.1964189 32.9995899,62.0381704 C32.6141116,55.8803716 32.4856188,51.9531053 33.1280826,48.5785254 C33.7705464,45.2034959 36.726329,50.3485609 38.3967348,55.7513065 C40.0675899,61.1536024 44.6937783,63.3409633 46.8781551,56.5229988 C49.0629812,49.705484 45.9575899,44.5604189 41.9204014,45.0748805 C37.8827638,45.5888923 34.1236768,46.9299101 32.1639377,46.6182651 C30.2046478,46.3057207 29.9153145,49.9631645 28.630387,55.3654604 C27.3450101,60.7673065 24.9422855,48.6761112 25.2441986,45.9742888 C25.5461116,43.2747148 17.5786623,35.2088213 12.9524739,32.8744071 C8.32628551,30.5395432 7.68382174,31.0315195 10.3821696,29.6288923 C13.0809667,28.2244663 12.0530246,27.1361822 9.61121304,26.0083243 C7.16985072,24.8804663 6.65543043,24.3938864 9.22573478,23.8011763 C11.7955899,23.2075669 10.8961406,17.2521349 9.61121304,15.2779337 C8.32628551,13.3032828 6.14145942,8.27379172 8.58327101,9.50193373" id="Fill-23" fill="#DBC8B8"></path>
                <path d="M20.8302029,20.4019527 C20.8302029,20.4019527 19.5699855,24.4344497 21.08,26.0084142 C22.5904638,27.5814793 24.3111884,32.2516568 25.7618986,28.7511598 C27.2126087,25.2497633 28.2450435,22.0402249 29.9141014,19.8942367 C31.5836087,17.7486982 32.7584638,14.382213 34.3475507,12.9044852 C35.937087,11.4245089 38.1816667,10.5012663 40.1962174,11.2657633 C42.2107681,12.0289112 44.8219565,11.766284 43.537029,10.9914438 C42.2521014,10.2170533 38.6322899,8.67276923 37.5508841,8.41553846 C36.4694783,8.15785799 36.1181449,6.61492308 33.9162464,7.89927811 C31.7143478,9.18768047 31.0530145,5.07153846 31.0530145,5.07153846 C31.0530145,5.07153846 30.7025797,8.65613018 32.107913,10.2080592 C33.5132464,11.7586391 32.284029,15.1039882 29.365087,17.0336686 C26.4456957,18.9633491 24.3713913,18.7348994 24.3713913,18.7348994 L20.8302029,20.4019527 Z" id="Fill-25" fill="#DBC8B8"></path>
                <path d="M27.281258,28.0408071 C27.281258,28.0408071 26.5740986,33.1498959 29.7868667,32.8742272 C32.9996348,32.5976592 34.6700406,25.8089254 35.4409971,23.8009964 C36.2119536,21.7930675 36.4563594,17.6764757 36.0129246,16.0049254 C35.5694899,14.3329254 35.6979826,16.235174 38.6537652,17.9849728 C41.6095478,19.7352213 42.2308957,18.5776828 41.9199971,16.776168 C41.6095478,14.9755527 42.3805043,17.2910793 45.2077942,18.7058485 C48.0346348,20.1210675 49.7054899,21.5763101 51.2474029,22.0709846 C52.7893159,22.5652095 52.6792435,23.8081917 49.9714609,23.0576355 C47.2636783,22.3079787 41.5785478,19.9020615 39.7306783,22.4554817 C37.8828087,25.0089018 33.9727652,28.3025349 33.9161565,31.3115053 C33.8599971,34.3195763 33.6420986,36.4363337 32.1639826,36.6396 C30.6863159,36.8424166 24.969287,33.091884 27.281258,28.0408071" id="Fill-27" fill="#DBC8B8"></path>
                <path d="M16.0956942,20.2662769 C16.0956942,20.2662769 14.7514623,22.2521704 15.5224188,24.595129 C16.2933754,26.9385373 14.785158,25.5682888 17.0818536,25.3942533 C19.3789986,25.2206675 19.4881725,24.278987 19.3138536,22.4563361 C19.1390855,20.6345846 16.0956942,20.2662769 16.0956942,20.2662769" id="Fill-29" fill="#DBC8B8"></path>
                <path d="M57.5963826,39.0128686 C57.5963826,54.8375077 44.7808029,67.665768 28.9717014,67.665768 C13.1626,67.665768 0.346571014,54.8375077 0.346571014,39.0128686 C0.346571014,23.1886793 13.1626,10.3608686 28.9717014,10.3608686 C44.7808029,10.3608686 57.5963826,23.1886793 57.5963826,39.0128686" id="Fill-31" fill="#A6D243"></path>
                <path d="M50.7319942,23.2310414 C48.0403855,22.7525562 45.2238783,20.8273728 42.4145594,21.3242959 C39.9430957,21.7614083 38.3409797,23.414071 37.0672841,25.4795621 C36.3731536,26.6056213 35.9207333,27.890426 35.4921246,29.1343077 C35.0212841,30.5000592 34.8298928,32.3991598 34.0387188,33.7190414 C34.1380087,33.3871598 34.2179797,33.0534793 34.1856319,32.7260947 C34.1654145,32.5228284 33.8895594,32.5228284 33.869342,32.7260947 C33.7386029,34.0563195 32.9869652,35.0438698 33.0808638,36.4532426 C33.169371,37.7807692 34.0297333,39.0480355 34.662313,40.1601538 C35.0720522,40.8801302 35.4265304,41.5740237 35.8187478,42.1626864 C35.4027188,42.3794438 34.9997188,42.5332426 34.6092986,42.6357751 C34.6987043,41.6837515 34.427342,40.5639882 34.0517478,39.734284 C33.5615884,38.6563432 32.7340232,38.1135503 31.5798348,37.9156805 C30.4970812,37.7290533 29.3132406,38.2794911 29.0279507,39.1375266 C29.0095304,39.0952544 28.989313,39.0556805 28.971342,39.0129586 C28.4650087,37.7996568 28.1267043,36.5278935 27.7192116,35.2817633 C27.6271101,34.9988994 27.5170377,34.7223314 27.3993275,34.4498107 C27.6850667,34.7169349 28.0080957,34.9507811 28.3697623,35.1392071 C28.6155159,35.2687219 28.8338638,35.0164379 28.7278348,34.7812426 C27.948342,33.0471834 26.8363855,31.9247219 26.6418493,29.9131953 C26.4585449,28.0212899 27.7156174,26.1653609 28.7251391,24.6759408 C29.5513565,23.4558935 29.9152696,22.0559645 30.4301391,20.6965089 C30.8142696,19.6842249 31.0411536,18.7007219 31.583429,17.7486982 C31.6211681,17.7055266 31.6467768,17.6565089 31.6768783,17.5841065 C31.9284725,17.1600355 32.1638928,16.7638462 32.3669652,16.3492189 C32.8207333,15.7169349 33.3710957,15.1444615 33.8670957,14.5575976 C34.5859362,13.7076568 35.3717188,13.1198935 36.2491536,12.4804142 C37.8256609,11.3287219 39.4286754,12.1314438 41.0015884,12.7237041 C43.3153565,13.5938817 45.8834145,14.2405562 47.9339072,15.625645 C49.0539507,16.3811479 50.0868348,17.5755621 51.2679797,18.3459053 C51.5348493,18.6121302 51.8596754,18.8113491 52.2909797,18.9161302 C53.9842986,19.3285089 55.2036319,20.065574 56.0577043,21.6139053 C56.4512696,22.3266864 56.7540812,23.5561775 57.2168348,24.5792544 C55.1717333,23.7877751 52.8732406,23.6114911 50.7319942,23.2310414 M29.3680522,39.8395148 C29.2696609,38.3892189 31.2958928,38.293432 32.4788348,38.9072781 C33.7395014,39.562497 33.748487,41.5178107 33.8882116,42.7616923 C31.9558783,42.9478698 30.3959942,41.757503 29.3680522,39.8395148 M23.4802986,35.3249349 C23.130313,34.9795621 22.8486174,34.5887692 22.6127478,34.1691953 C22.5651246,33.8831834 22.5323275,33.593574 22.5440087,33.2729349 C22.5777043,32.3550888 23.2902551,31.854568 24.1268058,31.749787 C24.7769072,31.6674911 25.3757913,31.702568 25.9477188,32.0380473 C26.1988638,33.5364615 26.7878638,35.1526982 27.2811681,36.6394201 C25.9090812,36.2490769 24.6591971,36.4869704 23.4802986,35.3249349 M20.2926899,25.6526982 C20.1035449,24.9570059 19.8663275,24.2936923 19.5904725,23.6281302 C19.3941391,23.1231124 19.2952986,22.5969586 19.2948493,22.050568 C19.5105014,21.5752308 19.5536319,21.097645 19.4282841,20.6178107 C19.4467043,20.6173609 19.4655739,20.6173609 19.4839942,20.6155621 C19.506458,20.6196095 19.5221826,20.6164615 19.5432986,20.6092663 C21.2819942,20.4554675 22.9407188,19.8065444 24.3712116,18.7348994 C25.693429,17.7451006 27.2937478,15.8999645 26.8498638,14.0773136 C26.7667478,13.7355385 26.6382551,13.401858 26.4760667,13.0758225 C26.5726609,12.8860473 26.4513565,12.6189231 26.2109942,12.5973373 C25.817429,11.9610059 25.295371,11.3709941 24.711313,10.8466391 C26.264458,10.3213846 27.5952116,8.30131361 28.519371,7.14692308 C30.3766754,4.826 32.5781246,2.04997633 35.9256754,3.49307692 C38.4205014,4.56831953 40.3155449,7.23056805 42.260458,9.04062722 C44.1559507,10.8061657 47.2406754,12.0253136 48.1518058,14.661929 C47.7249942,14.3628757 47.2900957,14.0777633 46.8457623,13.8200828 C45.9063275,13.2763905 44.7579797,13.053787 43.7565449,12.6436568 C42.3287478,12.058142 40.8865739,11.5175976 39.4390087,10.9846982 C36.3807913,9.85773964 34.2745884,12.6841302 32.709313,15.2726272 C32.6491101,15.2119172 32.5372406,15.1979763 32.4968058,15.2937633 C32.0812261,16.2660237 31.4198928,17.0503077 30.8326899,17.9231834 C30.2333565,18.8131479 29.8739362,20.121787 29.4439797,21.0774083 C28.5571101,23.0484615 27.4518928,24.7438462 26.4428203,26.6442959 C25.7617188,27.925503 25.5141681,29.5961538 25.7639652,31.1521302 C24.9696464,30.8962485 24.0203275,30.9272781 23.3958348,31.2114911 C22.7250667,31.5154911 22.2897188,32.0092663 22.0826029,32.7171006 C22.0668783,32.7706154 22.0605884,32.8200828 22.0498058,32.8740473 C21.7788928,32.0555858 21.6162551,31.1948521 21.4864145,30.3709941 C21.2330232,28.7592544 20.7199507,27.2239645 20.2926899,25.6526982 M16.9689507,31.2807456 C16.4828348,30.077787 16.3107623,28.601858 17.811342,28.1490059 C18.5504,27.925503 19.3734725,28.0442249 19.9638203,28.5371006 C20.0783855,28.6319882 20.1727333,28.7426154 20.2643855,28.8550414 C20.4683565,29.9064497 20.6435739,30.9628047 20.8165449,32.0151124 C20.8754,32.374426 20.9648058,32.7355385 21.0798203,33.0894556 C19.3209072,33.4712544 18.0719217,32.8924852 16.9689507,31.2807456 M16.1485739,29.6289822 C15.7797188,28.6220947 15.5429507,27.5360592 15.277429,26.5579527 C14.7171826,24.4933609 14.9000377,21.6827101 14.1349217,19.562355 C15.0433565,19.9706864 16.0021101,20.2922249 17.0565594,20.4878462 C17.7556319,20.6178107 18.452458,20.6636805 19.1389507,20.6348994 C18.5032261,21.9003669 18.6667623,23.117716 19.1407478,24.4915621 C19.5060087,25.5488166 19.7886029,26.630355 20.0289652,27.7208876 C19.2153275,27.3741657 18.1375159,27.4366746 17.3948638,27.7964379 C16.6553565,28.1539527 16.2532551,28.7480118 16.150371,29.5592781 C16.1476754,29.5804142 16.150371,29.6060473 16.1485739,29.6289822 M20.1610522,14.902071 C19.2678928,14.4046982 18.2925159,13.7881538 17.5566029,13.0888639 C15.7294,11.3516568 18.3787768,10.062355 19.3496609,9.73721893 C19.9247333,9.54474556 20.5483275,9.52226036 21.1521536,9.50202367 C21.7496899,10.0421183 22.4015884,10.5471361 23.0799942,10.9739053 C23.7965884,11.6178817 24.5832696,12.2150888 25.1471101,12.9755385 C25.1493565,12.9791361 25.1511536,12.9818343 25.1534,12.985432 C23.5032116,13.9680355 22.3997913,16.1517988 20.1610522,14.902071 M19.932371,6.4112071 C21.2172986,5.78836686 22.1940232,4.09523077 23.0188928,3.03213018 C24.1703855,1.54495858 25.4678928,1.08131361 27.2906029,1.70685207 C28.4591681,2.10843787 29.6048203,2.79918343 30.555487,3.59605917 C29.6461536,4.37494675 28.9061971,5.27525444 28.2039797,6.24976331 C27.2456754,7.5835858 25.9050377,9.79613018 24.2777623,10.4787811 C24.0369507,10.2854083 23.7894,10.1028284 23.5378058,9.93418935 C23.0521391,9.56633136 22.5485014,9.2227574 22.0821536,8.8652426 C21.1692261,8.16685207 20.5519217,7.3016213 19.932371,6.4112071 M37.003487,39.9919645 C37.5457623,39.898426 37.9891971,40.0306391 38.310429,40.4978817 C38.7826174,41.1850296 38.8446174,42.0624024 39.0881246,42.8403905 C38.1769942,43.0162249 37.2442986,42.7580947 36.5137768,41.766497 C36.3309217,41.5187101 36.176371,41.2479882 36.0326029,40.9696213 C35.9099507,40.2950651 36.3758493,40.1003432 37.003487,39.9919645 M59.3028203,25.7053136 C59.1253565,25.5735503 58.9425014,25.4530296 58.7569507,25.338355 C57.9626319,23.8466864 57.5960232,22.1049822 56.7778928,20.6002722 C56.300313,19.722 55.5648493,19.185503 54.7089797,18.7191598 C53.7237188,18.1808639 52.6342261,18.2042485 51.6804145,17.7266627 C51.0900667,17.1766746 50.5581246,16.5655266 49.9340812,16.0348757 C49.5526464,15.7106391 49.1545884,15.3971953 48.7484435,15.0931953 C48.8230232,15.0423787 48.8751391,14.9623314 48.8652551,14.8472071 C48.6549942,12.4233018 46.0986174,10.7791834 44.2839942,9.46829586 C41.6220377,7.54491124 39.7036319,4.82375148 36.9581101,3.0015503 C35.2005449,1.83501775 33.0606464,1.9159645 31.3421681,2.99885207 C29.6362696,1.57688757 26.9531971,-0.0501420118 24.6785159,0.594733728 C23.6442841,0.888840237 23.0148493,1.74102959 22.3926029,2.54824852 C21.8274145,3.28081657 21.3359072,4.03901775 20.6853565,4.70817751 C20.2832551,5.12010651 20.1345449,5.68763314 19.7041391,6.08427219 C19.4907333,5.77847337 19.2728348,5.47132544 19.038313,5.16912426 C17.4299072,3.09868639 15.2217188,3.1647929 12.8059652,3.51061538 C10.7631101,3.80337278 7.61683478,4.39428402 6.79241449,6.63156213 C6.70525507,6.8676568 6.62663188,7.10914793 6.55115362,7.35153846 C6.47253043,7.334 6.38626957,7.36502959 6.36155942,7.46801183 C5.72134203,10.1446509 5.1637913,12.8824497 4.27108116,15.485787 C3.3240087,18.2483195 2.12444348,20.9078698 1.28429855,23.7081775 C0.617573913,25.9310651 -0.44002029,28.9859053 0.196602899,31.3347101 C0.88713913,33.8831834 2.66537101,35.8924615 3.60121159,38.3433491 C4.53750145,40.7951361 4.72305217,43.5167456 5.32867536,46.0580237 C5.98776232,48.8210059 6.94651594,51.4675148 8.0670087,54.0744497 C9.10258841,56.481716 10.7460377,58.2598462 12.7960812,59.8392071 C14.321371,61.0151834 15.4962261,61.4788284 16.2366319,63.4647219 C16.7735159,64.9051243 16.9765884,66.4192781 17.3697043,67.9001538 C17.4308058,68.1313018 17.8225739,68.0908284 17.7956174,67.8407929 C17.5516609,65.6129586 17.1589942,63.4876568 16.2460667,61.4226154 C15.8767623,60.5879645 15.0725594,60.0366272 14.3568638,59.5271124 C13.1730232,58.6830178 12.110487,57.822284 11.1139942,56.761432 C9.05092174,54.5655266 8.07464638,51.2341183 7.16531304,48.425716 C6.26002319,45.6321538 5.69887826,42.8143077 5.05551594,39.9568876 C4.53884928,37.6620473 3.48889275,35.6828994 2.36884928,33.6416923 C0.601849275,30.4213609 1.45367536,27.3440355 2.35537101,24.0031834 C3.05309565,21.4164852 4.08013913,18.9228757 4.88254493,16.3676568 C5.26712464,15.1444615 5.54971884,13.8902367 5.79412464,12.6270178 C6.10053043,11.6318225 6.38447246,10.6312308 6.65987826,9.63648521 C7.09837101,8.05262722 7.30593623,6.57265089 8.9040087,5.7164142 C10.3556174,4.93707692 11.973458,4.71132544 13.5836609,4.51660355 C15.2122841,4.31963314 16.7025304,4.3160355 17.9438783,5.53698225 C18.7125884,6.29428402 19.1416464,7.34209467 19.8407188,8.16055621 C20.1291536,8.49828402 20.4485884,8.83511243 20.7882406,9.16294675 C18.2758928,9.40084024 14.9256464,11.1830178 17.5997333,13.7162012 C18.4798638,14.5504024 20.1583565,15.8716331 21.3767913,16.0245325 C23.1595159,16.2466864 24.1097333,14.4766509 25.5110232,13.5983787 C26.4616899,15.7592071 24.0365014,17.6713491 22.3589072,18.682284 C18.1797478,21.202426 13.4250667,18.2474201 9.65205217,16.5776686 C9.55590725,16.534497 9.48537101,16.6550178 9.57028406,16.718426 C10.8035449,17.6317751 11.9968203,18.466426 13.2705159,19.1387337 C13.4156319,20.3030178 13.5791681,21.4794438 13.6842986,22.6486746 C13.7458493,23.3277278 13.8352551,24.0013846 13.9462261,24.6723432 C13.2269362,24.6759408 12.5561681,24.8122012 11.9177478,25.1643195 C11.6230232,25.3253136 11.3390812,25.4917041 11.0825449,25.7089112 C10.9441681,25.826284 10.7671536,25.9153254 10.6422551,26.0407929 C10.6179942,26.0655266 10.5919362,26.1716568 10.5730667,26.1815503 C10.4562551,26.2427101 10.5124145,26.4261893 10.6391101,26.4261893 C11.0322261,26.4257396 11.5089072,26.1113964 11.890342,25.9949231 C12.1985449,25.9004852 12.5009072,25.7772663 12.8091101,25.6796805 C13.2143565,25.5501657 13.6910377,25.6140237 14.1088638,25.6032308 C14.1115594,25.6023314 14.1129072,25.601432 14.1151536,25.601432 C14.1165014,25.6095266 14.1187478,25.6167219 14.1200957,25.6243669 C13.7467478,25.7318462 13.4183275,25.9607456 13.0557623,26.1779527 C12.6985884,26.3920118 12.2479652,26.6173136 12.187313,27.0463314 C12.0862261,27.1317751 12.0902696,27.2986154 12.2093275,27.3669704 C12.2416754,27.385858 12.2731246,27.405645 12.3072696,27.4195858 C12.4362116,27.4757988 12.5862696,27.4605089 12.6626464,27.326497 C12.7888928,27.1047929 13.2768058,27.0278935 13.4929072,26.9262604 C13.7022696,26.8286746 14.0351826,26.5799882 14.3119362,26.5143314 C14.5388203,27.501432 14.8137768,28.4772899 15.1350087,29.4419053 C15.9207913,31.8033018 18.5773565,35.7391124 21.3718493,33.850355 C22.4406754,36.2490769 24.7414145,38.1396331 27.4752551,37.238426 C27.4819942,37.2595621 27.4896319,37.2815976 27.4959217,37.3027337 C27.806371,38.2889349 28.1150232,39.2652426 28.5386899,40.1925325 C28.7354725,41.3289349 29.1056754,42.4662367 29.3114435,43.5882485 C29.8177768,46.3408876 28.8185884,48.7306154 28.072342,51.2948284 C27.9712551,51.6442485 28.4555739,51.8277278 28.6424725,51.5349704 C30.4813565,48.6586627 30.5361681,45.2400118 29.6650232,42.0624024 C31.1925594,43.9309231 34.5338203,44.6963195 36.308458,42.8044142 C37.0538058,43.6408639 38.0179507,44.0757278 39.6717333,43.6952781 C41.9158638,43.1794675 42.3988348,41.5290533 42.4172551,39.5557515 C42.4311826,38.0712781 44.409342,36.6115385 44.9848638,35.213858 C45.0055304,35.1630414 45.0181101,35.110426 45.0365304,35.0587101 C45.6075594,35.8924615 47.3435594,36.0386154 48.1612406,36.0107337 C48.6397188,35.9931953 49.1568348,35.8650296 49.6833855,35.6644615 C50.0562841,35.686497 50.4323275,35.6891953 50.8025304,35.7031361 C51.1767768,35.718426 51.5366464,35.7993728 51.9055014,35.8542367 C52.1633855,35.8911124 52.4684435,36.1618343 52.7438493,36.2364852 C52.8799797,36.2733609 53.0282406,36.1128166 52.9379362,35.9842012 C52.508429,35.3775503 51.6992841,35.1508994 50.8618348,35.110426 C51.9940087,34.485787 53.0704725,33.6470888 53.7978493,32.9639882 C53.9047768,32.8637041 53.7947043,32.6500947 53.6482406,32.7063077 C51.3407623,33.6070651 47.5978493,36.5202485 45.2418493,34.3639172 C45.2337623,34.3562722 45.2238783,34.3522249 45.215342,34.3463787 C45.3433855,33.441574 45.1789507,32.4612189 44.8986029,31.6396095 C44.8235739,31.421503 44.4749362,31.4475858 44.4812261,31.6958225 C44.5009942,32.4612189 44.577371,33.2158225 44.5585014,33.9807692 C44.5198638,35.5461893 43.4020667,36.706426 42.4747623,37.837432 C41.402342,39.1465207 42.2128348,40.9399408 40.7261826,42.0695976 C40.4022551,42.3155858 40.051371,42.5211006 39.6892551,42.6650059 C39.7193565,42.0070888 39.4601246,41.2623787 39.2112261,40.6899053 C38.9048203,39.9861183 38.4869942,39.4325325 37.6899797,39.3052663 C37.049313,39.2036331 35.977342,39.6110651 35.6772261,40.2402012 C35.5038058,39.8709941 35.3290377,39.5040355 35.1201246,39.1631598 C34.2615594,37.7627811 33.541371,36.417716 33.7767913,34.7074911 C33.794313,34.5797751 33.8248638,34.4498107 33.8599072,34.3193964 C35.215371,33.1033964 35.6116319,30.9789941 36.2181536,29.334426 C37.2312696,26.5889822 38.6689507,23.5184024 41.6130522,22.4575503 C44.0642986,21.5743314 47.4734,23.1995621 49.8612986,23.8327456 C52.792371,24.6089349 55.7369217,24.6021893 58.3898928,26.294426 C61.1327188,28.0442249 60.9575014,31.6611953 60.5055304,34.4534083 C60.0886029,37.0320118 59.2349797,39.5049349 58.7165159,42.0651006 C58.5399507,41.210213 58.2546609,40.3751124 57.9212986,39.5741893 C57.7317043,39.1159408 57.0362261,38.3568402 57.0056754,37.8720592 C56.9971391,37.7375976 56.8061971,37.7375976 56.7976609,37.8720592 C56.7711536,38.2970296 56.8991971,38.5834911 57.0353275,39.0165562 C57.4554,40.3503787 57.8637913,41.7435621 57.9940812,43.1452899 C58.0691101,43.9525089 58.1302116,44.8802485 58.1315594,45.7891006 C57.8444725,47.7408166 57.5322261,49.6749941 57.0299362,51.6091716 C56.4364435,53.8936686 55.5644,56.0832781 54.7399797,58.2886272 C53.1189942,61.5404379 51.8461971,65.5360592 53.1531391,69.0770296 C53.2546754,69.3522485 53.6091536,69.3522485 53.7106899,69.0770296 C54.4888348,66.9701657 53.7066464,64.6366509 54.2107333,62.4555858 C54.4326754,61.4927692 54.5629652,60.6064024 54.8864435,59.6993491 C56.2158493,56.9853846 57.3336464,54.0807456 58.0974145,51.178355 C58.2672406,50.5330296 58.4042696,49.8841065 58.5287188,49.2329349 C58.6500232,48.834497 58.7659362,48.4320118 58.8737623,48.0200828 C59.0377478,47.3945444 59.054371,46.7375266 59.0274145,46.0755621 C59.2641826,44.2969822 59.4672551,42.5130059 59.8073565,40.7398225 C60.6919797,36.133503 64.2075594,29.3380237 59.3028203,25.7053136" id="Fill-33" fill="#5E5F62"></path>
                <path d="M40.6158406,65.878284 C39.6067681,65.0202485 38.4961594,64.3272544 37.4515942,63.5123905 C36.0264928,62.4034201 35.1158116,60.509716 34.2621884,58.9586864 C32.6474928,56.0252663 32.6582754,52.6839645 32.7966522,49.4483432 C32.7993478,49.3844852 32.7072464,49.3763905 32.6901739,49.4344024 C30.9240725,55.4114201 33.6345507,64.7023077 40.3916522,66.2636805 C40.6005652,66.3122485 40.8022899,66.0374793 40.6158406,65.878284" id="Fill-36" fill="#5E5F62"></path>
            </g>
        </g>
    </g>
</svg>