<?xml version="1.0" encoding="UTF-8"?>
<svg width="52px" height="104px" viewBox="0 0 52 104" version="1.1" xmlns="http://www.w3.org/2000/svg" xmlns:xlink="http://www.w3.org/1999/xlink">
    <!-- Generator: Sketch 56.3 (81716) - https://sketch.com -->
    <title>palm</title>
    <desc>Created with Sketch.</desc>
    <g id="Mobile" stroke="none" stroke-width="1" fill="none" fill-rule="evenodd">
        <g id="15-Results-Cal" transform="translate(-37.000000, -348.000000)">
            <g id="palm" transform="translate(37.000000, 348.000000)">
                <path d="M27.2356276,57.326871 C26.5529034,58.1246545 25.8912483,58.9814165 25.2923517,59.8440312 C24.1349034,61.509832 22.9016966,63.2494684 22.3283517,65.2173645 C21.7101793,67.3383342 20.8181103,69.3399965 20.3406966,71.5118407 C19.8803172,73.6035463 19.7776621,75.7479273 19.3132483,77.8324294 C19.2249379,78.2281697 18.6964207,78.0931048 18.6592138,77.7446372 C18.1705931,73.157832 20.2380414,68.6417108 21.6640069,64.4164294 C22.3063862,62.5120139 23.8506966,60.6440658 25.0458,59.0521004 C26.0902828,57.6631827 27.3642828,56.5236848 28.6140759,55.3292606 C28.7055241,55.2423688 28.8229724,55.3522216 28.7776966,55.4571221 C28.4473172,56.2292433 27.7731103,56.6983688 27.2356276,57.326871 M15.742731,62.0158753 C17.2722483,59.947581 19.8758345,59.2952173 21.9979724,58.0377628 C22.6708345,57.6384208 23.4122828,57.3552346 24.1259379,57.0387325 C24.8252483,56.7285333 25.3331448,56.2382476 25.9746276,55.8551134 C27.1181793,55.1721351 28.0622483,54.1879619 29.2309034,53.555858 C29.525869,53.3969316 29.7656966,53.7571048 29.5706966,53.9997714 C28.1671448,55.7488623 25.872869,57.1611913 23.8282828,58.0116502 C22.6219724,58.5127411 21.4734897,59.1097281 20.2600069,59.5856069 C18.6444207,60.2195117 17.1323862,60.9015896 15.8431448,62.094213 C15.7924897,62.1414857 15.6974552,62.077555 15.742731,62.0158753 M9.21045517,58.0868364 C9.15217931,58.1242043 9.10511034,58.0458667 9.14231724,57.9990442 C10.1150759,56.7641004 10.8856621,55.5948883 12.1350069,54.5530874 C13.2830414,53.5945766 14.4673862,52.7868883 15.7938345,52.0980571 C17.1861793,51.3741091 18.7080759,50.75191 20.1932138,50.2476675 C21.803869,49.7011048 23.4346966,48.8893645 25.0856966,48.5183861 C25.3075931,48.4688623 25.534869,48.7669056 25.3277655,48.9357368 C24.2402483,49.822213 22.8066621,50.2854857 21.4842483,50.7046372 C19.7135586,51.2674078 17.8603862,51.9571394 16.1941448,52.7864381 C14.6310069,53.5648623 13.0660759,54.4450355 11.7611448,55.6223515 C10.9237655,56.3787152 10.1433172,57.5033558 9.21045517,58.0868364 M38.9540069,96.8761351 C39.1158345,93.8601351 39.4699724,90.7410355 40.9250759,88.0451394 C41.4284897,87.1118407 41.9919724,86.2186113 42.577869,85.340239 C40.8183862,87.0231481 38.5949379,88.3859532 36.2594207,88.5489316 C33.8033172,88.7195636 29.8602828,88.684897 28.3903862,86.2627325 C28.3437655,86.1852952 28.4562828,86.0939013 28.5163517,86.1650355 C29.5438,87.3653126 31.2243862,87.6579532 32.7162483,87.7619532 C34.0319379,87.8524468 35.879731,87.986161 37.1174207,87.4814684 C38.6285586,86.8664727 40.3508345,86.1970009 41.5185931,85.0237368 C42.2851448,84.252516 43.1229724,83.5519792 44.1082828,83.0824035 C44.1163517,83.0792519 44.1253172,83.0783515 44.1342828,83.0756502 C44.9106966,81.964516 45.6826276,80.8493299 46.3819379,79.6850701 C48.138731,76.7609143 49.4831103,73.6449662 50.0941103,70.2746459 C50.741869,66.7008277 50.5114552,63.0225593 50.6235241,59.4059706 C50.7351448,55.793884 50.6230759,52.2948017 50.1600069,48.7097281 C49.9434897,47.0340225 49.7238345,45.3394078 49.906731,43.6483948 C50.0896276,41.9533299 50.4720069,40.2717714 50.585869,38.5722043 C50.6777655,37.1931913 50.7432138,34.0997541 48.7950069,33.8201697 C47.0418,33.5680485 45.4315931,35.0506113 44.6610069,36.4881524 C44.0226621,37.6776242 43.5793172,38.9805506 43.3784897,40.3212952 C43.2986966,40.8557022 43.1897655,44.5110095 43.5981448,44.5690874 C43.8904207,44.6105074 43.8904207,45.1179013 43.5981448,45.1593212 C43.5613862,45.1642736 43.5246276,45.1696762 43.4883172,45.1750788 C43.3444207,45.1953385 43.2041103,45.1633732 43.1256621,45.0274078 C43.1005586,44.9823861 43.0803862,44.9360139 43.0566276,44.8896416 C43.0256966,44.9760831 42.990731,45.0607238 42.9571103,45.1449143 C42.9566621,45.1660745 42.9575586,45.1872346 42.9575586,45.2074944 C42.9557655,45.3200485 42.9015241,45.4046892 42.8266621,45.4650182 C42.3779379,46.5131221 41.8001103,47.5252087 41.5499724,48.6493991 C41.2088345,50.1819359 40.9519724,51.7419359 40.8286966,53.3118407 C40.7587655,54.2082216 40.4176276,56.1527065 39.6385241,57.2251221 C40.2221793,57.0909576 40.8313862,57.0909576 41.2859379,57.2832 C41.4401448,57.3484814 41.4715241,57.5276675 41.3307655,57.6298667 C40.7121448,58.0769316 39.9612828,57.9823861 39.2839379,58.2943861 C38.4483517,58.6806719 38.0525241,59.3789576 37.4209034,59.9903515 C36.8480069,60.5472693 35.9173862,61.7696069 35.0365241,61.6201351 C34.8751448,61.5922216 34.9163862,61.378819 35.0365241,61.3319965 C35.6421448,61.0906805 36.2060759,60.1870961 36.6431448,59.7274251 C37.1662828,59.1763602 37.5943862,58.5487584 38.1211103,58.0044468 C38.1596621,57.9643775 38.2018,57.9261091 38.245731,57.8882909 C38.2022483,57.8140052 38.2085241,57.7131567 38.300869,57.6676848 C39.4722138,57.0819532 39.9173517,54.4729489 39.9863862,53.3118407 C40.0406276,52.3961004 40.065731,51.3709576 40.2392138,50.4745766 C40.6076966,48.5683602 41.1281448,46.3947152 42.1542483,44.6510268 C41.5360759,40.7143342 41.9135241,36.6533818 41.1586276,32.7027325 C40.4283862,28.8799446 39.8716276,25.0558061 39.2045931,21.2289662 C38.8939379,19.4492606 38.5788,17.6659532 38.3681103,15.8691394 C38.1524897,14.0300052 38.1399379,12.0188883 37.5038345,10.264845 C37.1622483,9.32254199 36.1791793,6.76576277 34.5528345,7.95118268 C33.6181793,8.63281039 33.0560414,9.57871515 32.6664897,10.651581 C32.3145931,11.6199965 32.0702828,12.5681524 31.927731,13.5433212 C31.7506621,17.2576069 31.6309724,20.970542 32.1774207,24.6717714 C32.6180759,27.6553558 32.6714207,30.6002216 32.9735586,33.5914597 C33.1640759,35.4751654 33.3160414,37.0914424 32.0532483,38.2696589 C32.8000759,38.3416935 33.5670759,38.228239 33.8656276,39.143529 C34.0274552,39.6396675 33.2586621,39.8454165 33.0919034,39.3560312 C32.9108,38.8261264 31.3355586,39.0282736 30.8657655,38.8225247 C30.5470414,38.6807065 30.6259379,38.2354424 30.8657655,38.0751654 C33.0165931,36.6353732 31.9425241,32.7414511 31.8618345,30.4980225 C31.7842828,28.3536416 31.5332483,26.2619359 31.332869,24.1283602 C30.9195586,19.728845 30.8496276,15.1776069 30.9486966,10.7596329 C30.9926276,8.81289697 31.290731,6.81258528 31.0746621,4.86765022 C30.8805586,3.11945974 29.9952138,0.231771429 27.5660069,1.03180606 C25.3040069,1.77916537 24.3455931,4.27201385 24.4114897,6.48932987 C24.4419724,7.52122597 24.5894552,8.59049004 24.5145931,9.6210355 C24.4980069,9.84749437 24.4670759,10.0726026 24.4321103,10.2972606 C24.5432828,11.0203082 24.5715241,11.7609143 24.5298345,12.4884641 C24.4500414,13.8971913 24.0631793,15.2681004 23.815731,16.6529662 C23.4817655,18.5200139 23.3674552,20.2749576 23.334731,22.1663169 C23.2782483,25.4312866 23.1262828,28.5692952 23.3423517,31.8329143 C23.5310759,34.6809835 24.0035586,37.9549576 23.1159724,40.7246892 C22.9855241,41.1325853 22.4041103,41.0501957 22.3834897,40.6251913 C22.2516966,37.9171394 22.5394897,35.1586632 22.4704552,32.4344035 C22.4036621,29.7974857 22.6425931,27.2816762 22.7582483,24.6551134 C22.8676276,22.1568623 22.5170759,19.4906805 22.8976621,17.0293472 C23.2769034,14.5747671 23.9206276,12.0121351 23.2320759,9.54539913 C22.8761448,8.26948571 21.9500069,6.14851602 20.2492483,6.31914805 C18.5413172,6.48932987 17.2534207,8.28164156 16.873731,9.85154632 C16.1928,12.6613472 16.5886276,15.4643948 16.2900759,18.3043602 C16.0040759,21.0304208 15.4271448,23.7150615 15.0721103,26.4330182 C14.7498,28.8979532 14.4597655,31.3831481 14.0231448,33.8350268 C14.0540759,34.5985939 14.0661793,35.3671134 14.0599034,36.1423861 C14.0406276,38.6230788 14.0585586,41.643581 13.2615241,44.0036156 C13.2019034,44.1796502 12.8912483,44.2251221 12.8594207,44.0036156 C12.5415931,41.8061091 13.1857655,39.5181091 13.2019034,37.3021437 C13.2189379,34.9587671 13.1292828,32.6135896 12.7231448,30.3003775 C12.3515241,28.1821091 11.9834897,26.2939013 12.0027655,24.1283602 C12.0224897,21.8637714 12.1650414,18.705503 9.85552414,17.6114771 C7.27166207,17.2314944 6.5078,24.4817801 6.27962759,25.781555 C5.8300069,28.3473385 5.77128276,30.9793039 5.21183448,33.5216762 C4.11490345,38.5087238 5.40055862,43.5691567 4.95631724,48.6007758 C5.0405931,48.2613126 5.11814483,47.9218494 5.1800069,47.5792346 C5.20645517,47.4315636 5.42790345,47.4734338 5.43193793,47.6134511 C5.48573103,49.3404814 5.09886897,51.0832693 4.8845931,52.7918407 C4.61697241,54.9276675 4.33007586,57.0634944 4.13552414,59.2074251 C3.7778,63.1450182 3.65048966,67.0159792 3.65407586,70.9693299 C3.65586897,73.0083602 3.38735172,75.2598926 3.86969655,77.2606545 C4.31393793,79.1011394 4.86397241,80.9254165 5.45121379,82.725832 C6.46566207,85.8309749 8.28162759,88.3256242 8.80117931,91.5392693 C8.90562759,92.0880831 8.98273103,92.6404987 9.04324828,93.1803082 C9.22793793,94.8253991 9.73673103,97.3493126 9.06566207,99.0277195 C11.426731,100.890265 15.6714552,103.1481 22.6860759,103.635235 C30.8406621,104.202507 36.0998345,100.366213 39.0705586,97.0701784 C39.0010759,97.034161 38.9486276,96.9684294 38.9540069,96.8761351" id="Fill-1" fill="#F5E0CE"></path>
                <path d="M6.47615172,24.4914147 C6.47615172,24.4914147 6.56670345,29.8845576 9.12904828,30.1569385 C11.6913931,30.4293195 10.1600828,31.5850251 9.12904828,31.7799688 C8.09846207,31.9753628 7.93349655,35.2358303 6.47615172,39.8807134 C5.0188069,44.5260468 5.53208276,45.7947567 7.75597931,45.7596398 C9.98032414,45.7227221 12.591531,45.0537004 12.8972552,40.738826 C13.2029793,36.4239515 14.8508414,27.9585316 15.0718414,26.4327481 C15.2932897,24.9074147 16.3700483,18.8682113 16.4072552,16.3357437 C16.4444621,13.8032762 17.3714966,17.3415273 17.2692897,20.3620294 C17.1670828,23.383432 15.8989103,25.9582199 18.5863241,26.3899775 C21.2732897,26.8208346 18.7400828,28.6964364 17.2692897,29.047155 C15.7980483,29.3978736 15.5187724,31.6210424 14.7714966,35.1444364 C14.0237724,38.6696312 17.2674966,41.4245056 18.5863241,40.738826 C19.9047034,40.0526961 21.9578069,33.1211636 21.444531,29.627484 C20.9312552,26.1329039 22.5853931,22.763484 22.6862552,20.3620294 C22.786669,17.9605749 26.358531,8.67846234 25.4090828,7.05768312 C24.4596345,5.43825455 25.7591862,10.6666182 25.5695655,13.41609 C25.3799448,16.1660121 25.4427034,19.9190165 27.1223931,20.3620294 C28.8020828,20.8059429 27.775531,22.524419 26.2357034,23.383432 C24.6954276,24.242445 24.9249448,31.2631203 25.4090828,34.9702026 C25.8932207,38.6777351 29.2830828,35.2412329 29.6412552,31.1163498 C29.9998759,26.9923671 30.1388414,22.1534407 29.6412552,20.3620294 C29.1441172,18.5706182 28.9988759,17.4365229 29.9640138,14.6190684 C30.9300483,11.8016139 31.8490138,13.5457524 31.8149448,16.3285403 C31.7813241,19.1126788 31.8817379,23.8984797 34.9618414,23.8984797 C38.0419448,23.8984797 35.4751172,24.618826 34.9618414,27.8671377 C34.4485655,31.1163498 33.664531,36.3964883 36.4519103,36.7643152 C39.2392897,37.1307913 40.0273586,37.3761593 40.0950483,32.1847134 C40.1622897,26.9923671 41.4138759,36.4617697 41.7841517,40.5564883 C42.1539793,44.6507567 43.3665655,42.2619082 41.5501517,48.649129 C39.7337379,55.0358996 39.2177724,58.381458 35.0362552,61.3317264 C30.8551862,64.2828952 27.2340138,75.7958303 28.7877379,80.6077437 C30.3419103,85.4201074 36.501669,89.8668952 33.9352897,89.9627913 C31.3684621,90.0595879 23.7697379,90.0595879 18.5863241,90.9186009 C13.4024621,91.7776139 11.3861172,86.9657004 15.7308069,82.6701853 C20.0754966,78.3742199 22.4388069,58.1707567 29.6412552,55.298826 C36.8441517,52.4250944 40.7791172,49.098445 35.1330828,48.2700468 C29.4866,47.4407481 19.3681172,50.4851117 13.4764276,53.5173195 C7.58518621,56.5490771 16.9124621,49.8512069 22.6862552,47.1859255 C28.4600483,44.5206442 20.7600138,44.8682113 14.7714966,47.1859255 C8.78297931,49.50409 4.55170345,50.1289905 4.88163448,41.8256485 C5.21156552,33.5218563 6.47615172,24.4914147 6.47615172,24.4914147" id="Fill-3" fill="#DBC8B8"></path>
                <path d="M50.8182552,66.6860156 C50.8182552,80.7800416 39.4423586,92.2051844 25.4090828,92.2051844 C11.3762552,92.2051844 -8.96551726e-05,80.7800416 -8.96551726e-05,66.6860156 C-8.96551726e-05,52.5919896 11.3762552,41.1668468 25.4090828,41.1668468 C39.4423586,41.1668468 50.8182552,52.5919896 50.8182552,66.6860156" id="Fill-5" fill="#0AB1D8"></path>
                <path d="M28.6141655,55.3294857 C27.3639241,56.5234597 26.0903724,57.6634078 25.0458897,59.0523255 C23.8507862,60.6442909 22.3064759,62.5117887 21.6640966,64.4166545 C20.2376828,68.6414857 18.1706828,73.1580571 18.6588552,77.7444121 C18.6965103,78.0933299 19.2250276,78.2279446 19.3128897,77.8322043 C19.7777517,75.7481524 19.8804069,73.6037714 20.3403379,71.5116156 C20.8177517,69.3397714 21.710269,67.3385593 22.3284414,65.2175896 C22.9013379,63.2496935 24.1349931,61.5100571 25.2924414,59.8438061 C25.8913379,58.9811913 26.5525448,58.1248797 27.2357172,57.3270961 C27.7732,56.6985939 28.4474069,56.2290182 28.7777862,55.456897 C28.8230621,55.3524468 28.7056138,55.2425939 28.6141655,55.3294857" id="Fill-8" fill="#5E5F62"></path>
                <path d="M29.230769,53.555903 C28.0621138,54.1880069 27.1184931,55.1721801 25.9744931,55.8551584 C25.3330103,56.2382926 24.8251138,56.7285784 24.1262517,57.0387775 C23.4121483,57.3552797 22.6711483,57.6384658 21.9982862,58.0378078 C19.8757,59.2952623 17.2725621,59.947626 15.7425966,62.0159203 C15.697769,62.0776 15.7923552,62.1415307 15.8434586,62.094258 C17.1322517,60.9016346 18.6447345,60.2195567 20.2603207,59.5856519 C21.4733552,59.1097732 22.6218379,58.5127861 23.8281483,58.011245 C25.8727345,57.1612364 28.1670103,55.7489074 29.5710103,53.9998165 C29.7655621,53.7571498 29.5261828,53.3965264 29.230769,53.555903" id="Fill-10" fill="#5E5F62"></path>
                <path d="M25.0857414,48.5182061 C23.4342931,48.8891844 21.8039138,49.7009247 20.1928103,50.2479377 C18.7081207,50.7517299 17.1857759,51.3743792 15.793431,52.0978771 C14.467431,52.7867082 13.2830862,53.5943965 12.1350517,54.5529074 C10.8857069,55.5951584 10.1151207,56.7639203 9.14236207,57.9993143 C9.10515517,58.0456866 9.15222414,58.1240242 9.2105,58.0871065 C10.1433621,57.5031758 10.9238103,56.3785351 11.7611897,55.6221714 C13.0661207,54.4448554 14.6310517,53.5646823 16.1941897,52.786258 C17.860431,51.9574095 19.7136034,51.2672277 21.4842931,50.7044571 C22.8067069,50.2857558 24.2402931,49.8220329 25.3278103,48.9360069 C25.5349138,48.7671758 25.3076379,48.4691325 25.0857414,48.5182061" id="Fill-12" fill="#5E5F62"></path>
                <path d="M51.5839103,51.9185558 C51.4270138,49.9997333 51.0764621,48.1011706 50.9141862,46.1818978 C50.7330828,44.0370667 51.2037724,41.955716 51.4731862,39.8410494 C51.789669,37.3549541 51.9537379,33.8216554 49.0699793,32.8185732 C46.5928069,31.9568589 44.233531,34.9255861 43.3463931,36.799387 C43.0729448,37.3761143 42.8420828,38.0055169 42.663669,38.6655342 C42.3803586,35.7818978 41.906531,32.9162701 41.2641517,30.1118719 C40.1165655,25.0964606 39.9202207,19.8509887 39.4307034,14.7333784 C39.2410828,12.7533264 38.9420828,10.7746251 38.1051517,8.9571013 C37.6452207,7.95897143 36.3438759,6.42733506 35.058669,6.86809697 C33.7030828,7.33227013 32.7043241,8.66085887 32.0843586,10.2276121 C32.1493586,8.70317922 32.1941862,7.1782961 32.1758069,5.65431342 C32.1363586,2.4051013 30.1195655,-1.38392035 26.3899103,0.504287446 C24.6851172,1.36690216 23.8513241,3.49057316 23.615531,5.26397576 C23.5048069,6.09687619 23.5612897,6.95769004 23.6366,7.81400173 C23.3725655,7.3151619 23.0462207,6.85008831 22.6468069,6.43183723 C21.2244276,4.94117056 19.3492897,5.20859913 17.8870138,6.40347359 C15.8581172,8.06027013 15.5622552,10.9754216 15.4542207,13.4020883 C15.3811517,15.0377247 15.4811172,16.6688589 15.3533586,18.3044952 C15.2139448,20.0896035 14.8557724,21.8769628 14.5504966,23.6400104 C14.1439103,25.9869887 13.9202207,28.3699844 13.7678069,30.754781 C13.6602207,29.9254823 13.5226,29.0984346 13.3392552,28.2664346 C12.776669,25.7128069 13.8408759,18.204097 10.2878414,17.224426 C6.36363448,15.1012052 5.09277241,27.1242355 4.88925517,28.9926338 C4.53108276,32.2859671 3.50542759,35.5860537 3.8133931,38.9059498 C4.18232414,42.8885645 4.10835862,46.833361 4.15049655,50.8209281 C4.1513931,50.9334823 4.2258069,51.0086684 4.31501379,51.0401835 C4.23656552,51.3688416 4.16528966,51.6993004 4.11015172,52.0347117 C3.78873793,53.9913524 3.51035862,55.9547463 3.28263448,57.9244433 C2.80118621,62.081742 2.62770345,66.1962701 2.61918621,70.3774303 C2.61515172,72.3295688 2.52953103,74.2929628 2.67477241,76.2396987 C2.81866897,78.1679758 3.5143931,80.0710407 4.10970345,81.8948675 C4.64584138,83.5368069 5.14835862,85.0842009 5.99918621,86.5973784 C6.56132414,87.5982095 6.96118621,88.6193004 7.3198069,89.6565991 C7.64166897,90.9991446 7.91511724,92.3439411 8.01508276,93.7666251 C8.14553103,95.6255688 7.92766897,97.5583481 8.15673793,99.397032 C8.19797931,99.7265905 8.59291034,99.8724606 8.79194483,99.5694649 C9.86197931,97.9392312 9.24918621,95.0128242 9.04342759,93.1799931 C8.98246207,92.6401835 8.90535862,92.0882182 8.80135862,91.5394043 C8.28135862,88.3253091 6.46584138,85.8306597 5.4513931,82.7259671 C4.86370345,80.9255515 4.31411724,79.1012745 3.86987586,77.2607896 C3.38708276,75.2600277 3.65604828,73.0084952 3.65425517,70.9690147 C3.65022069,67.0156641 3.77797931,63.1451532 4.13525517,59.20711 C4.3298069,57.0636294 4.61715172,54.9278026 4.88477241,52.7915255 C5.0986,51.0834043 5.48591034,49.3401662 5.43166897,47.6131359 C5.42763448,47.4735688 5.20663448,47.4312485 5.17973793,47.5789195 C5.11832414,47.9219844 5.04077241,48.2614476 4.95604828,48.6009108 C5.40028966,43.5692918 4.11463448,38.5088589 5.21156552,33.5218113 C5.77101379,30.9789887 5.83018621,28.3474736 6.2798069,25.7812398 C6.50753103,24.4819152 7.27184138,17.2316294 9.85570345,17.6116121 C12.1652207,18.7056381 12.022669,21.8639065 12.0029448,24.128045 C11.983669,26.2940364 12.3517034,28.1817939 12.7233241,30.3000623 C13.1290138,32.6137247 13.2191172,34.9589022 13.2016345,37.3022788 C13.1859448,39.5182442 12.5413241,41.8062442 12.8591517,44.0037506 C12.8914276,44.2252571 13.2020828,44.1797853 13.2617034,44.0037506 C14.0587379,41.643716 14.0408069,38.6232139 14.0600828,36.1425212 C14.0663586,35.3667983 14.0542552,34.5982788 14.0233241,33.8351619 C14.4599448,31.3832831 14.7499793,28.8976381 15.0718414,26.4331532 C15.4273241,23.7147463 16.0038069,21.0305558 16.2902552,18.3044952 C16.5888069,15.4640797 16.1929793,12.6614823 16.8739103,9.85168139 C17.2536,8.28177662 18.5414966,6.48946494 20.2494276,6.31928312 C21.9501862,6.14865108 22.8758759,8.26962078 23.2318069,9.5455342 C23.9208069,12.0118199 23.2770828,14.5749022 22.8973931,17.0294823 C22.5172552,19.4908156 22.8678069,22.1569974 22.7579793,24.6547983 C22.6423241,27.281361 22.4033931,29.7971706 22.4706345,32.4345385 C22.539669,35.1583481 22.2514276,37.9168242 22.3832207,40.6253264 C22.4042897,41.0498805 22.9857034,41.1327203 23.1161517,40.7248242 C24.0032897,37.9546424 23.5312552,34.6811186 23.342531,31.8330494 C23.1264621,28.5694303 23.2784276,25.4314216 23.3344621,22.1664519 C23.3671862,20.2750926 23.4819448,18.5196987 23.8154621,16.6531013 C24.0633586,15.2682355 24.4497724,13.8973264 24.5300138,12.4885991 C24.5717034,11.7610494 24.5430138,11.0199931 24.4322897,10.2973957 C24.4668069,10.0727377 24.4981862,9.84762944 24.5147724,9.62117056 C24.5896345,8.59062511 24.4421517,7.52136104 24.4112207,6.48946494 C24.3453241,4.27214892 25.3037379,1.77930043 27.5661862,1.03194113 C29.9953931,0.231456277 30.8807379,3.11914459 31.0748414,4.86733506 C31.2904621,6.81272035 30.9928069,8.81303203 30.9488759,10.759768 C30.8493586,15.177742 30.9192897,19.7289801 31.3326,24.128045 C31.5329793,26.262071 31.7844621,28.3533264 31.8615655,30.4981576 C31.9427034,32.7411359 33.0167724,36.6355082 30.8659448,38.0753004 C30.6261172,38.2351273 30.5472207,38.6808416 30.8659448,38.8226597 C31.3357379,39.0284087 32.910531,38.8262615 33.0920828,39.3561662 C33.2588414,39.8455515 34.0276345,39.6398026 33.8658069,39.1436641 C33.5672552,38.228374 32.7998069,38.3418286 32.0529793,38.2697939 C33.3162207,37.0911273 33.1642552,35.4753004 32.9737379,33.5915948 C32.6716,30.5999065 32.6182552,27.6550407 32.1776,24.6714563 C31.6311517,20.9706771 31.7503931,17.257742 31.9274621,13.5434563 C32.0700138,12.5682874 32.3147724,11.6196814 32.6662207,10.651716 C33.0557724,9.57885022 33.6183586,8.63249524 34.5525655,7.95131775 C36.1793586,6.76589784 37.1624276,9.32267706 37.5035655,10.2645299 C38.1401172,12.0190234 38.1522207,14.0301403 38.3682897,15.8692745 C38.5789793,17.6660883 38.8941172,19.4493957 39.2043241,21.2291013 C39.8718069,25.0559411 40.4281172,28.8800797 41.1588069,32.7024173 C41.9132552,36.6535169 41.5358069,40.714019 42.1539793,44.6507117 C41.1283241,46.3944 40.6074276,48.5684952 40.2389448,50.4747117 C40.0659103,51.3706424 40.0408069,52.3962355 39.9861172,53.3119758 C39.917531,54.473084 39.4719448,57.0820883 38.3010483,57.6678199 C38.2087034,57.7132918 38.2024276,57.8141403 38.2454621,57.888426 C38.2019793,57.9262442 38.1598414,57.9645126 38.1212897,58.0045818 C37.5945655,58.5488935 37.1660138,59.1764952 36.6428759,59.7275602 C36.2062552,60.186781 35.6423241,61.0908156 35.0362552,61.3316814 C34.9161172,61.3789541 34.8753241,61.5919065 35.0362552,61.6202701 C35.9171172,61.769742 36.8477379,60.5474043 37.4210828,59.9904866 C38.0527034,59.3786424 38.448531,58.6808069 39.2841172,58.2945212 C39.9610138,57.9825212 40.7123241,58.0770667 41.3304966,57.6300017 C41.4717034,57.5278026 41.4398759,57.3486165 41.285669,57.2833351 C40.8311172,57.0906424 40.2223586,57.0906424 39.6387034,57.2252571 C40.4173586,56.1523913 40.7584966,54.2083567 40.8288759,53.3119758 C40.9521517,51.7416208 41.2090138,50.182071 41.5501517,48.649084 C41.7998414,47.5253437 42.377669,46.5132571 42.8268414,45.4651532 C42.9017034,45.404374 42.9559448,45.3201835 42.9572897,45.2076294 C42.9577379,45.1873697 42.9568414,45.1662095 42.9568414,45.1450494 C42.9904621,45.0608589 43.0254276,44.9762182 43.0568069,44.8897766 C43.0805655,44.9356987 43.1007379,44.9825212 43.1258414,45.0270926 C43.2042897,45.1635082 43.3441517,45.1950234 43.4880483,45.1747636 C43.5248069,45.1698113 43.5615655,45.1644087 43.5983241,45.1590061 C43.8901517,45.1180364 43.8901517,44.6106424 43.5983241,44.5692225 C43.1899448,44.5111446 43.2988759,40.8558372 43.378669,40.3209801 C43.5794966,38.9806857 44.0228414,37.6777593 44.6611862,36.4882874 C45.4317724,35.0502961 47.041531,33.5677333 48.7951862,33.8203048 C50.7433931,34.0998892 50.6779448,37.1933264 50.5856,38.5718892 C50.4721862,40.2719065 50.0898069,41.9530147 49.9064621,43.6485299 C49.7240138,45.3395429 49.9432207,47.0337074 50.1601862,48.7098632 C50.6228069,52.2949368 50.7348759,55.7935688 50.6232552,59.4061056 C50.5116345,63.0226944 50.7416,66.7009628 50.0938414,70.2743307 C49.4828414,73.6451013 48.1384621,76.7610494 46.3821172,79.6852052 C45.6823586,80.8494649 44.9104276,81.9642009 44.1340138,83.0757853 C44.1254966,83.0784866 44.116531,83.079387 44.1084621,83.0825385 C43.1227034,83.5521143 42.2848759,84.2522009 41.5183241,85.0234216 C40.3505655,86.1971359 38.6282897,86.8666078 37.1176,87.4811532 C35.8799103,87.9858459 34.031669,87.8521316 32.7159793,87.7616381 C31.2245655,87.6580883 29.5439793,87.3649974 28.516531,86.1647203 C28.4564621,86.0935861 28.3439448,86.1849801 28.3905655,86.2624173 C29.8604621,88.685032 33.8030483,88.7192485 36.2591517,88.5486165 C38.5951172,88.3860883 40.8181172,87.0232831 42.5780483,85.3399238 C41.9921517,86.2187463 41.428669,87.1119758 40.9248069,88.0448242 C39.4701517,90.7407203 39.1160138,93.8598199 38.9537379,96.8758199 C38.9398414,97.1328935 39.3589793,97.1936727 39.4029103,96.9365991 C39.7041517,95.1866078 39.8489448,93.4456208 40.3017034,91.7185905 C40.882669,89.5012745 42.0750828,87.6833004 43.3508759,85.8185039 C45.5814966,82.5571359 48.0510483,79.4011186 49.5577034,75.7097939 C51.0329793,72.0945558 51.5449103,68.3874736 51.5691172,64.5016554 C51.594669,60.3168935 51.9254966,56.0961143 51.5839103,51.9185558" id="Fill-14" fill="#5E5F62"></path>
            </g>
        </g>
    </g>
</svg>