<?xml version="1.0" encoding="UTF-8"?>
<svg width="53px" height="102px" viewBox="0 0 53 102" version="1.1" xmlns="http://www.w3.org/2000/svg" xmlns:xlink="http://www.w3.org/1999/xlink">
    <!-- Generator: Sketch 56.3 (81716) - https://sketch.com -->
    <title>thumb</title>
    <desc>Created with Sketch.</desc>
    <g id="Mobile" stroke="none" stroke-width="1" fill="none" fill-rule="evenodd">
        <g id="15-Results-Cal" transform="translate(-36.000000, -869.000000)">
            <g id="thumb" transform="translate(36.000000, 869.000000)">
                <path d="M14.8113441,101.207664 C15.5317847,98.7206773 17.3629797,96.285824 19.0455051,94.3704907 C19.7214797,93.601184 20.4001492,92.8921707 21.1520305,92.3359307 C19.7416915,92.2525173 18.321022,91.989584 16.7709966,91.646864 C16.5913356,91.6078773 16.6290644,91.297344 16.8150136,91.3200107 C20.1944373,91.7329973 23.2828102,91.2297973 26.4973949,90.1866773 C28.6349119,89.4935307 30.1382254,88.4993707 31.8247932,87.044624 C31.9824458,86.9090773 32.1311153,86.7825973 32.2766407,86.6629173 C31.5795559,86.701904 30.9175051,86.704624 30.3605559,86.7009973 C28.3501492,86.686944 23.6726746,87.806224 22.1590305,85.9353173 C22.0202424,85.7625973 22.190022,85.5313973 22.393039,85.6297707 C23.4561831,86.141584 25.4436831,85.6605973 26.5072763,85.481984 C27.7222339,85.2761707 29.1204458,85.2145173 30.3605559,85.2117973 C32.2029797,85.2049973 33.6784458,85.0417973 35.4211576,84.380384 C36.2341237,84.071664 36.7470559,83.5389973 37.6408695,83.6400907 C37.7899881,83.655504 37.9584203,83.7978507 37.8905983,83.9705707 C37.7253102,84.389904 37.4791746,84.7398773 37.1840814,85.0408907 C40.1920559,84.5050507 43.4210136,83.8585973 45.4314203,81.4568373 C48.2458102,78.093104 48.9617593,71.5424373 42.6866492,72.295424 C39.3813356,72.6920907 36.1959458,73.1844107 32.8767085,73.4047307 C30.6246576,73.5543307 28.5899966,73.8508107 26.8728864,72.1693973 C26.7291576,72.0297707 26.9110644,71.8089973 27.0790475,71.899664 C29.2345305,73.0524907 32.0516153,72.1870773 34.3526237,72.005744 C36.8225136,71.8089973 39.2142508,71.147584 41.6679712,70.8148373 C43.602022,70.5528107 45.8738356,70.6316907 47.4279034,71.750064 C48.5346153,68.8283307 49.1387254,65.5978773 47.2859712,62.8062507 C45.3366492,59.8686507 42.1642847,58.4202507 38.6864966,58.545824 C35.1368441,58.672304 31.6478271,59.489664 28.1457847,60.0313973 C25.8497169,60.387264 23.8550305,60.4983307 21.8935814,59.0839307 C21.7390729,58.9724107 21.8266576,58.6972373 22.0292254,58.7588907 C26.3289627,60.0631307 31.1905898,57.9614773 35.5078441,57.305504 C38.6334966,56.8313173 42.1135305,56.6953173 44.932861,58.3944107 C47.0465729,59.6669173 48.6549881,61.4204107 49.4688525,63.663504 C50.5854458,60.233584 51.8879881,57.041664 51.4756661,53.2359307 C50.9860898,48.715744 48.4456831,45.5637173 43.6303186,45.6602773 C36.1312678,45.8098773 28.6816237,48.0606773 21.1996407,47.1467573 C20.9112847,47.112304 20.9072424,46.7224373 21.1996407,46.6902507 C23.7894542,46.417344 26.3383949,46.3525173 28.9124881,45.8860373 C31.2049627,45.470784 33.5176492,44.943104 35.8402169,44.7313973 C39.6059119,44.3886773 44.817878,43.1347573 48.3302508,45.1067573 C48.7502085,45.3424907 49.137378,45.6045173 49.4949034,45.8914773 C48.8216237,43.5998773 47.927361,41.4333973 46.9293441,39.1993707 C45.886861,36.866064 44.7334373,34.8469173 42.0272932,34.286144 C39.941878,33.8532107 37.7351915,33.9193973 35.5159288,34.1913973 C35.4732593,34.2049973 35.4287932,34.2108907 35.387022,34.2049973 C32.4913356,34.570384 29.5790305,35.277584 26.8917508,35.684224 C22.5506915,36.3388373 16.4197593,37.4204907 12.9747593,40.4900107 C10.6845305,42.5300107 10.6809373,44.762224 11.7696831,47.4980907 C12.2341068,48.665424 12.2781237,49.195824 12.0243525,49.7674773 C12.0036915,50.8391573 11.6120305,51.9112907 10.9225814,52.783504 C9.24364915,54.9069173 9.25218305,57.5974507 10.6441068,59.8749973 C10.7671746,60.0780907 10.9127,60.2888907 11.0622678,60.5051307 C11.136378,60.5509173 11.1997085,60.6220907 11.236539,60.7236373 C11.2446237,60.743584 11.2482169,60.7671573 11.2558525,60.7893707 C11.6879373,61.423584 12.1038525,62.1140107 12.1204712,62.8402507 C12.1393356,63.6449173 12.3742424,64.5656373 12.1532593,65.3598773 C11.6524542,67.164144 11.1022424,69.0332373 12.1941322,70.772224 C13.6278271,73.0565707 14.5211915,75.241184 13.7872763,77.967984 C13.7172085,78.225024 13.3331831,78.2309173 13.2671576,77.967984 C12.7897085,76.0766773 12.947361,74.2909973 11.9012847,72.527984 C11.4206915,71.7178773 10.733039,70.762704 10.6369203,69.7866773 C10.4442339,67.831904 11.325022,65.9609973 11.1979119,64.0488373 C10.7451661,65.499504 9.82979322,66.863584 8.87040339,67.8214773 C7.39089492,69.2948107 5.91587797,70.7051307 4.38651356,72.1272373 C3.30001356,73.1381707 2.34736102,74.1590773 0.97699661,74.6831307 C0.348632203,78.3646507 -0.672740678,85.691424 0.631149153,88.2804107 C4.4732,95.9068373 10.4895983,99.680384 14.9227339,101.515024 C14.8306576,101.452917 14.7713695,101.345024 14.8113441,101.207664" id="Fill-1" fill="#F5E0CE"></path>
                <path d="M20.3867195,35.4079173 C23.1988636,34.611864 26.1183551,34.129064 28.8572873,33.706104 C30.7239653,33.416424 32.9535585,32.9055173 35.2307619,32.574584 C35.2415415,32.4517307 35.2509737,32.3293307 35.2559144,32.2078373 C35.2491771,32.1928773 35.2388466,32.1824507 35.2339059,32.165224 C34.6845924,30.5214373 34.6643805,28.748904 34.330211,27.0457307 C34.0432025,25.5823707 33.6865754,24.1312507 33.5046686,22.6488507 C33.1269314,19.5802373 33.2383212,16.568744 33.1574737,13.4919707 C33.0564144,9.654504 31.9869822,5.94215733 28.6264229,3.727624 C26.5984992,2.39255733 22.8736771,0.571064 20.4877788,2.111944 C17.1034144,4.29519733 18.7801008,9.30997067 19.5351263,12.486024 C20.2070585,15.3125573 21.0559568,18.124584 21.2401093,21.040424 C21.4377364,24.1638907 21.5473297,27.2850907 21.2329229,30.402664 C21.0658381,32.064584 20.9760076,33.8371173 20.3867195,35.4079173" id="Fill-3" fill="#F5E0CE"></path>
                <path d="M21.889,3.289432 C21.889,3.289432 19.6966864,7.99548533 22.5155678,14.1766853 C25.334,20.357432 26.7434407,21.3221253 29.5618729,21.4730853 C32.3798559,21.6217787 32.3798559,14.1766853 32.3798559,14.1766853 C32.3798559,14.1766853 33.0320254,20.5868187 33.6810508,23.8154587 C34.3300763,27.0454587 35.2306271,32.5747653 35.2306271,32.5747653 C35.2306271,32.5747653 33.9460508,24.419752 28.779,25.6283387 C23.6115,26.837832 22.8286271,35.4080987 22.8286271,35.4080987 C22.8286271,35.4080987 21.2031441,36.6547653 21.2327881,30.4028453 C21.2624322,24.1509253 20.8321441,16.6876987 19.9518051,14.1766853 C19.0705678,11.665672 17.0255763,3.92228533 21.889,3.289432" id="Fill-5" fill="#DBC8B8"></path>
                <path d="M12.9748042,40.4893307 C12.9748042,40.4893307 12.1052449,46.7874907 17.2323212,45.8214373 C22.3589483,44.8544773 31.87155,43.6304773 37.2344314,42.1820773 C42.5973127,40.734584 45.2253042,41.0020507 43.6263212,37.6423973 C42.0273381,34.2859173 43.6249737,36.9669307 45.5186008,40.3574107 C47.4126771,43.748344 48.1659059,44.1078373 45.5186008,44.4804773 C42.8717449,44.8544773 24.987389,46.6392507 22.1855754,47.247624 C19.3837619,47.856904 13.0736178,47.856904 12.7839144,53.230264 C12.494211,58.6040773 19.3837619,60.0347973 23.4548805,59.556984 C27.5259992,59.0787173 39.6001178,55.6070907 41.9321178,56.8215707 C44.2636686,58.0346907 44.5578636,54.8536507 45.4368551,52.382984 C46.3162958,49.9109573 46.4272364,53.058904 47.2330161,56.305224 C48.0387958,59.5524507 48.5997873,62.316424 47.2330161,61.720744 C45.8657958,61.1241573 44.4374907,56.075384 23.4548805,60.500824 C2.47271949,64.9258107 18.8030076,73.3410373 27.0790924,71.8994373 C27.0790924,71.8994373 30.5011856,73.3523707 37.5474907,72.0630907 C44.5937958,70.7733573 24.966728,75.7296507 25.7769992,77.9138107 C26.5868212,80.0975173 40.9794653,81.0458907 42.6296517,80.0975173 C44.2807364,79.149144 43.5526602,72.037704 44.9342534,74.092664 C46.3162958,76.1467173 45.6861347,82.2481307 41.0338127,83.0804507 C36.3810415,83.914584 35.0744568,84.4767173 30.3606008,85.210664 C25.6471941,85.9455173 25.1445924,91.0740773 21.9484229,91.2662907 C18.7518042,91.457144 18.9099059,89.615704 14.216711,94.0932773 C9.52306695,98.5717573 8.84799068,97.283384 8.3224822,94.0638107 C7.79652458,90.843784 11.3978297,86.854904 12.0243975,83.0804507 C12.6505161,79.3078107 12.7057619,73.6066907 11.2689229,71.478744 C9.8320839,69.3512507 12.9846856,64.8904507 12.1205161,62.840024 C11.2558975,60.789144 8.37682966,57.247704 10.0750754,54.2221573 C11.7733212,51.195704 10.4788636,47.6524507 10.4788636,47.6524507 C10.4788636,47.6524507 8.28789746,41.1824773 12.9748042,40.4893307" id="Fill-7" fill="#DBC8B8"></path>
                <path d="M38.7927661,16.7513013 C38.7927661,26.0020213 33.3440966,33.5024213 26.6225288,33.5024213 C19.900961,33.5024213 14.4527407,26.0020213 14.4527407,16.7513013 C14.4527407,7.49967467 19.900961,0.000181333333 26.6225288,0.000181333333 C33.3440966,0.000181333333 38.7927661,7.49967467 38.7927661,16.7513013" id="Fill-9" fill="#FFE36A"></path>
                <path d="M35.230672,32.574584 C32.9539178,32.9055173 30.7238754,33.416424 28.8576466,33.7051973 C26.1182653,34.129064 23.1987737,34.611864 20.3866297,35.4079173 C20.9763669,33.8371173 21.0657483,32.064584 21.2328331,30.402664 C21.5472398,27.284184 21.4376466,24.1638907 21.2404686,21.040424 C21.0558669,18.124584 20.2069686,15.3125573 19.5350364,12.486024 C18.780011,9.30997067 17.1037737,4.29519733 20.487689,2.111944 C22.8735873,0.571064 26.5984093,2.39255733 28.6263331,3.727624 C31.9868924,5.94215733 33.0563246,9.654504 33.1573839,13.4919707 C33.2382314,16.5678373 33.1268415,19.5802373 33.5045788,22.6488507 C33.6864856,24.1312507 34.0431127,25.5823707 34.3301212,27.0457307 C34.6642907,28.748904 34.6845025,30.5214373 35.2338161,32.165224 C35.2392059,32.181544 35.2490873,32.1928773 35.2562737,32.2078373 C35.2508839,32.3293307 35.2414517,32.4517307 35.230672,32.574584 M49.917511,65.3809573 C49.8977483,65.262184 49.7064093,64.4892507 49.6830534,64.372744 C52.8136466,59.774584 53.9338331,52.395224 50.5440788,47.620264 C50.0751636,44.4986107 49.3223839,41.5904773 48.1496466,38.679624 C47.2553839,36.4605573 46.4549941,34.6358907 44.2757059,33.4118907 C41.9836805,32.125784 39.0305025,32.1008507 36.0899008,32.460344 C36.1464941,32.006104 36.1541297,31.5414373 36.0979856,31.1012507 C36.3198669,27.8073307 35.1269178,24.211944 34.8273331,20.999624 C34.4873246,17.3543707 34.9894771,13.7000507 34.5012483,10.070664 C33.726011,4.30925067 27.9984178,-0.093976 22.3557144,0.0533573333 C15.3597144,0.235597333 16.9083924,8.42551733 17.9324602,12.9325573 C18.8842144,17.122264 19.6769686,21.058104 19.9406212,25.3674907 C20.1328585,28.5131707 20.3165619,32.5355973 19.3854686,35.7071173 C16.9178246,36.4836773 14.5611212,37.5286107 12.5188246,39.0218907 C11.1408246,40.0305573 9.89757034,41.558744 9.67568898,43.314504 C9.50590932,44.664984 9.73183305,45.831864 10.2524008,47.0839707 C10.9135534,48.6738107 11.1394771,49.633064 10.7217653,51.304504 C10.7199686,51.3108507 10.724011,51.315384 10.7235619,51.320824 C10.3516636,51.8448773 9.96718898,52.0724507 9.58720593,52.6327707 C8.88922288,53.662744 8.52810424,54.6605307 8.34934153,55.8981307 C8.1943839,56.9747973 8.37853644,57.9648773 8.71764661,58.983064 C9.02890932,59.918744 9.67254492,60.7438107 10.2276975,61.5974373 C10.126189,62.0004507 10.0547737,62.4070907 10.029172,62.834584 C9.90790085,64.8355973 8.44590932,66.452184 7.15729068,67.8307707 C5.02246864,70.1137573 3.02284153,72.646984 0.648172034,74.6955973 C0.605502542,74.7309573 0.650866949,74.8043973 0.701621186,74.787624 C2.22739237,74.303464 3.22720593,73.2054907 4.38646864,72.1270107 C5.91583305,70.7039973 7.39085,69.294584 8.87080763,67.8212507 C9.82974831,66.8638107 10.7451212,65.4997307 11.1978669,64.049064 C11.3249771,65.9607707 10.444189,67.8316773 10.6368754,69.786904 C10.7329941,70.7624773 11.4206466,71.718104 11.9012398,72.5282107 C12.9473161,74.2907707 12.7896636,76.076904 13.2671127,77.9682107 C13.3331381,78.231144 13.7176127,78.2247973 13.7872314,77.9682107 C14.5215958,75.2409573 13.6277822,73.0567973 12.1940873,70.7724507 C11.1021975,69.033464 11.6524093,67.1643707 12.1532144,65.3596507 C12.3741975,64.5654107 12.1392907,63.643784 12.1204263,62.840024 C12.1038076,62.113784 11.6878924,61.4238107 11.2558076,60.789144 C11.248172,60.7669307 11.2445788,60.7438107 11.2364941,60.723864 C11.1996636,60.621864 11.1363331,60.551144 11.0622229,60.504904 C10.9126551,60.2891173 10.7671297,60.0783173 10.6440619,59.875224 C9.25213814,57.597224 9.24360424,54.907144 10.9225364,52.7832773 C11.6119856,51.911064 12.0036466,50.8389307 12.0243076,49.7667973 C12.2780788,49.1955973 12.2340619,48.6642907 11.7696381,47.4983173 C10.6808924,44.7624507 10.6849347,42.5302373 12.9747144,40.4893307 C16.4197144,37.4198107 22.5510958,36.339064 26.8921551,35.6830907 C29.5789856,35.2778107 32.4912907,34.5701573 35.3869771,34.205224 C35.4287483,34.210664 35.4732144,34.205224 35.5158839,34.1911707 C37.7351466,33.919624 39.9418331,33.852984 42.0272483,34.2859173 C44.7333924,34.847144 45.8868161,36.8662907 46.9292992,39.1982373 C47.9277653,41.4331707 48.8215788,43.5996507 49.4948585,45.890344 C49.1373331,45.6042907 48.7501636,45.3413573 48.3302059,45.106984 C44.8178331,43.1340773 39.6058669,44.3870907 35.840172,44.7311707 C33.5180534,44.9419707 31.2049178,45.4705573 28.9124432,45.8858107 C26.33835,46.352744 23.7894093,46.4162107 21.1995958,46.6904773 C20.9071975,46.722664 20.9112398,47.1111707 21.1995958,47.146984 C28.6815788,48.059544 36.1312208,45.808744 43.6302737,45.659144 C48.4456381,45.5634907 50.9860449,48.7155173 51.4756212,53.235704 C51.8879432,57.0418907 50.58585,60.2338107 49.4688076,63.6632773 C48.6549432,61.4206373 47.046528,59.667144 44.9328161,58.394184 C42.1134856,56.6950907 38.6334517,56.831544 35.5077992,57.3057307 C31.1905449,57.9612507 26.3289178,60.0633573 22.0291805,58.7591173 C21.8266127,58.6970107 21.739028,58.972184 21.8935364,59.0841573 C23.8549856,60.498104 25.849672,60.385224 28.146189,60.0311707 C31.6477822,59.4885307 35.1367992,58.6720773 38.6864517,58.5455973 C42.164689,58.4204773 45.3366042,59.868424 47.2859263,62.8064773 C49.1386805,65.598104 48.5345703,68.8285573 47.4278585,71.7498373 C45.8737907,70.631464 43.6019771,70.5516773 41.6679263,70.815064 C39.2142059,71.1478107 36.8224686,71.809224 34.3525788,72.005064 C32.0515703,72.187304 29.2344856,73.052264 27.0794517,71.8994373 C26.9114686,71.809224 26.7291127,72.029544 26.8728415,72.169624 C28.5899517,73.8510373 30.6246127,73.554104 32.8766636,73.404504 C36.1959008,73.184184 39.3812907,72.6909573 42.6866042,72.2942907 C48.9617144,71.5417573 48.2462144,78.0928773 45.4313754,81.4566107 C43.4209686,83.8579173 40.192011,84.5043707 37.1840364,85.040664 C37.4791297,84.7396507 37.7252653,84.3901307 37.8905534,83.970344 C37.9583754,83.7967173 37.7899432,83.6557307 37.6408246,83.6403173 C36.747011,83.539224 36.2340788,84.0718907 35.4211127,84.3801573 C33.6784008,85.0415707 32.2029347,85.205224 30.360511,85.210664 C29.1204008,85.2142907 27.722189,85.2763973 26.5072314,85.4817573 C25.4436381,85.660824 23.4561381,86.1413573 22.3929941,85.629544 C22.1899771,85.5311707 22.0201975,85.7623707 22.1589856,85.9350907 C23.6726297,87.8059973 28.3501042,86.687624 30.360511,86.7007707 C30.9174602,86.7034907 31.579511,86.7016773 32.2765958,86.663144 C32.1310703,86.7823707 31.98285,86.9088507 31.8247483,87.0443973 C30.1381805,88.499144 28.6348669,89.4937573 26.49735,90.1859973 C23.2827653,91.230024 20.1943924,91.731864 16.8149686,91.3202373 C16.6290195,91.2971173 16.5912907,91.608104 16.7709517,91.6470907 C18.3214263,91.9893573 19.7416466,92.252744 21.1519856,92.335704 C20.4001042,92.891944 19.7214347,93.6009573 19.0454602,94.3693573 C17.3629347,96.2855973 15.5317398,98.7213573 14.8112992,101.207437 C14.7160788,101.535197 15.1715195,101.712451 15.3448924,101.434104 C16.5845534,99.443064 17.9787229,97.5182107 19.4932653,95.718024 C20.2343669,94.8371973 21.0073585,93.7151973 22.0574771,93.2015707 C22.8318161,92.822584 23.6654432,92.543784 24.4352907,92.153464 C24.9697822,92.0578107 25.5141551,91.929064 26.0764941,91.7586107 C27.9108331,91.198744 29.347672,90.6783173 30.9637229,89.608904 C32.3947229,88.6614373 33.5836297,87.3490373 34.9149178,86.263304 C35.0209178,86.2342907 35.1291636,86.208904 35.2333669,86.174904 C41.5116212,86.6382107 51.0875534,81.841944 49.060528,74.1828773 C48.8696381,73.4620773 48.551189,72.884984 48.1496466,72.415784 C49.3304686,70.2869307 50.3159093,67.787704 49.917511,65.3809573" id="Fill-11" fill="#5E5F62"></path>
                <path d="M30.5602042,23.4755947 C29.7580178,23.021808 28.7335008,23.2752213 27.8567551,23.384928 C27.0298653,23.488288 26.0525093,23.5336213 25.3715941,24.064928 C25.31545,24.1089013 25.2858059,24.2208747 25.3715941,24.2571413 C26.1059585,24.569488 27.0770263,24.3373813 27.8567551,24.2915947 C28.728111,24.240368 29.7917042,24.3527947 30.5602042,23.897648 C30.7151619,23.8060747 30.7196534,23.5662613 30.5602042,23.4755947" id="Fill-13" fill="#5E5F62"></path>
                <path d="M43.4088415,37.1778667 C43.0733246,36.4897067 42.1543585,35.1637067 41.1868839,35.49464 C41.0404602,35.5440533 40.978028,35.7303733 41.0943585,35.8477867 C41.3404941,36.0934933 41.6077398,36.3278667 41.8637568,36.5654133 C41.8826212,36.5835467 41.8942992,36.60304 41.9118161,36.6216267 C41.8219856,36.68464 41.7676381,36.8052267 41.835011,36.91584 C42.350189,37.7613067 42.4822398,38.63624 42.5626381,39.61 C42.6295619,40.4182933 42.5024517,41.2755467 42.8456042,42.0244533 C42.942172,42.23344 43.3005958,42.2352533 43.3971636,42.0244533 C43.4636381,41.87848 43.5139432,41.7252533 43.5570619,41.56976 C43.6877653,41.5801867 43.8252059,41.52896 43.8903331,41.40656 C44.6179602,40.0474667 44.025528,38.4404 43.4088415,37.1778667" id="Fill-15" fill="#5E5F62"></path>
                <path d="M19.1322364,83.9809973 C18.8609483,83.3241173 18.1171517,83.3463307 17.6423975,82.9138507 C17.0755669,82.3997707 16.3007788,82.307744 15.7339483,81.8321973 C15.5610246,81.6866773 15.2488636,81.8172373 15.3288127,82.0688373 C15.5560839,82.7828373 16.2738297,83.0113173 16.7791263,83.4823307 C17.1016178,83.783344 17.2727449,84.0208907 17.6944992,84.1686773 C18.0816686,84.3051307 18.5222873,84.4760373 18.9283212,84.3432107 C19.0648636,84.2978773 19.1955669,84.1333173 19.1322364,83.9809973" id="Fill-17" fill="#5E5F62"></path>
                <path d="M12.3695263,84.858424 C12.2913737,84.697944 12.0263737,84.657144 11.9109415,84.7990373 C10.9380771,85.9985573 11.3701619,87.7738107 11.1006703,89.1977307 C10.92595,90.1166373 10.4803907,91.0890373 9.92254322,91.8397573 C9.37457712,92.5773307 8.51489915,92.980344 7.99882288,93.7374107 C7.85913644,93.9409573 8.12683136,94.177144 8.32221271,94.0638107 C10.1552042,92.998024 11.3310856,92.3252773 12.2222042,90.263064 C12.822272,88.8735973 13.0446025,86.2379173 12.3695263,84.858424" id="Fill-19" fill="#5E5F62"></path>
                <path d="M45.4370347,52.38312 C45.2120093,51.07344 45.1131958,49.2886667 44.0990093,48.30312 C43.9058737,48.11544 43.5555347,48.3004 43.638628,48.5733067 C43.9368653,49.54888 44.1169754,50.4972533 44.3146025,51.50048 C44.6209246,53.0499733 44.2858568,54.5409867 44.4727042,56.08504 C44.4951619,56.2745333 44.7691449,56.4118933 44.87245,56.1947467 C45.4226619,55.0428267 45.6562212,53.6556267 45.4370347,52.38312" id="Fill-21" fill="#5E5F62"></path>
                <path d="M44.4891881,64.0414027 C44.3342305,63.4606827 44.0822559,61.860416 43.3353153,61.724416 C43.1394847,61.6881493 42.9535356,61.9279627 43.1260102,62.0852693 C43.5729169,62.495536 43.6685864,64.119376 43.7974932,64.6719893 C44.0903407,65.9263627 43.9394254,67.2210827 44.1298661,68.480896 C44.1617559,68.6953227 44.5040102,68.7334027 44.5924932,68.542096 C45.2195102,67.1811893 44.8624339,65.4394827 44.4891881,64.0414027" id="Fill-23" fill="#5E5F62"></path>
                <path d="M30.5602042,23.4755947 C29.7580178,23.021808 28.7335008,23.2752213 27.8567551,23.384928 C27.0298653,23.488288 26.0525093,23.5336213 25.3715941,24.064928 C25.31545,24.1089013 25.2858059,24.2208747 25.3715941,24.2571413 C26.1059585,24.569488 27.0770263,24.3373813 27.8567551,24.2915947 C28.728111,24.240368 29.7917042,24.3527947 30.5602042,23.897648 C30.7151619,23.8060747 30.7196534,23.5662613 30.5602042,23.4755947" id="Fill-25" fill="#5E5F62"></path>
                <path d="M43.4088415,37.1778667 C43.0733246,36.4897067 42.1543585,35.1637067 41.1868839,35.49464 C41.0404602,35.5440533 40.978028,35.7303733 41.0943585,35.8477867 C41.3404941,36.0934933 41.6077398,36.3278667 41.8637568,36.5654133 C41.8826212,36.5835467 41.8942992,36.60304 41.9118161,36.6216267 C41.8219856,36.68464 41.7676381,36.8052267 41.835011,36.91584 C42.350189,37.7613067 42.4822398,38.63624 42.5626381,39.61 C42.6295619,40.4182933 42.5024517,41.2755467 42.8456042,42.0244533 C42.942172,42.23344 43.3005958,42.2352533 43.3971636,42.0244533 C43.4636381,41.87848 43.5139432,41.7252533 43.5570619,41.56976 C43.6877653,41.5801867 43.8252059,41.52896 43.8903331,41.40656 C44.6179602,40.0474667 44.025528,38.4404 43.4088415,37.1778667" id="Fill-27" fill="#5E5F62"></path>
                <path d="M19.1322364,83.9809973 C18.8609483,83.3241173 18.1171517,83.3463307 17.6423975,82.9138507 C17.0755669,82.3997707 16.3007788,82.307744 15.7339483,81.8321973 C15.5610246,81.6866773 15.2488636,81.8172373 15.3288127,82.0688373 C15.5560839,82.7828373 16.2738297,83.0113173 16.7791263,83.4823307 C17.1016178,83.783344 17.2727449,84.0208907 17.6944992,84.1686773 C18.0816686,84.3051307 18.5222873,84.4760373 18.9283212,84.3432107 C19.0648636,84.2978773 19.1955669,84.1333173 19.1322364,83.9809973" id="Fill-29" fill="#5E5F62"></path>
                <path d="M12.3695263,84.858424 C12.2913737,84.697944 12.0263737,84.657144 11.9109415,84.7990373 C10.9380771,85.9985573 11.3701619,87.7738107 11.1006703,89.1977307 C10.92595,90.1166373 10.4803907,91.0890373 9.92254322,91.8397573 C9.37457712,92.5773307 8.51489915,92.980344 7.99882288,93.7374107 C7.85913644,93.9409573 8.12683136,94.177144 8.32221271,94.0638107 C10.1552042,92.998024 11.3310856,92.3252773 12.2222042,90.263064 C12.822272,88.8735973 13.0446025,86.2379173 12.3695263,84.858424" id="Fill-31" fill="#5E5F62"></path>
                <path d="M45.4370347,52.38312 C45.2120093,51.07344 45.1131958,49.2886667 44.0990093,48.30312 C43.9058737,48.11544 43.5555347,48.3004 43.638628,48.5733067 C43.9368653,49.54888 44.1169754,50.4972533 44.3146025,51.50048 C44.6209246,53.0499733 44.2858568,54.5409867 44.4727042,56.08504 C44.4951619,56.2745333 44.7691449,56.4118933 44.87245,56.1947467 C45.4226619,55.0428267 45.6562212,53.6556267 45.4370347,52.38312" id="Fill-33" fill="#5E5F62"></path>
                <path d="M44.4891881,64.0414027 C44.3342305,63.4606827 44.0822559,61.860416 43.3353153,61.724416 C43.1394847,61.6881493 42.9535356,61.9279627 43.1260102,62.0852693 C43.5729169,62.495536 43.6685864,64.119376 43.7974932,64.6719893 C44.0903407,65.9263627 43.9394254,67.2210827 44.1298661,68.480896 C44.1617559,68.6953227 44.5040102,68.7334027 44.5924932,68.542096 C45.2195102,67.1811893 44.8624339,65.4394827 44.4891881,64.0414027" id="Fill-35" fill="#5E5F62"></path>
            </g>
        </g>
    </g>
</svg>